<?xml version="1.0" encoding="UTF-8" standalone="no"?>
<!DOCTYPE svg PUBLIC "-//W3C//DTD SVG 1.1//EN"
 "http://www.w3.org/Graphics/SVG/1.1/DTD/svg11.dtd">
<!-- Generated by graphviz version 2.40.1 (20161225.0304)
 -->
<!-- Title: public.sky Pages: 1 -->
<svg width="1007pt" height="862pt"
 viewBox="0.00 0.00 1007.00 862.00" xmlns="http://www.w3.org/2000/svg" xmlns:xlink="http://www.w3.org/1999/xlink">
<g id="graph0" class="graph" transform="scale(1 1) rotate(0) translate(4 858)">
<title>public.sky</title>
<polygon fill="#ffffff" stroke="transparent" points="-4,4 -4,-858 1003,-858 1003,4 -4,4"/>
<!-- public.sky -->
<g id="node1" class="node">
<title>public.sky</title>
<polygon fill="#efefef" stroke="transparent" points="349,-772.5 349,-807.5 622,-807.5 622,-772.5 349,-772.5"/>
<polygon fill="none" stroke="#000000" points="349,-772.5 349,-807.5 622,-807.5 622,-772.5 349,-772.5"/>
<text text-anchor="start" x="382.2114" y="-785.3" font-family="Arial Bold" font-size="18.00" fill="#000000">public.sky</text>
<text text-anchor="start" x="461.2206" y="-785.3" font-family="Arial" font-size="14.00" fill="#000000">    </text>
<text text-anchor="start" x="495.4254" y="-785.3" font-family="Arial" font-size="14.00" fill="#666666">[BASE TABLE]</text>
<polygon fill="none" stroke="#000000" points="349,-742.5 349,-772.5 622,-772.5 622,-742.5 349,-742.5"/>
<text text-anchor="start" x="356" y="-753.9" font-family="Arial" font-size="14.00" fill="#000000">sky_id </text>
<text text-anchor="start" x="399.5624" y="-753.9" font-family="Arial" font-size="14.00" fill="#666666">[bigint]</text>
<polygon fill="none" stroke="#000000" points="349,-712.5 349,-742.5 622,-742.5 622,-712.5 349,-712.5"/>
<text text-anchor="start" x="356" y="-723.9" font-family="Arial" font-size="14.00" fill="#000000">obj_id </text>
<text text-anchor="start" x="397.2342" y="-723.9" font-family="Arial" font-size="14.00" fill="#666666">[bigint]</text>
<polygon fill="none" stroke="#000000" points="349,-682.5 349,-712.5 622,-712.5 622,-682.5 349,-682.5"/>
<text text-anchor="start" x="356" y="-693.9" font-family="Arial" font-size="14.00" fill="#000000">obj_id_orig </text>
<text text-anchor="start" x="428.3492" y="-693.9" font-family="Arial" font-size="14.00" fill="#666666">[varchar]</text>
<polygon fill="none" stroke="#000000" points="349,-652.5 349,-682.5 622,-682.5 622,-652.5 349,-652.5"/>
<text text-anchor="start" x="356" y="-663.9" font-family="Arial" font-size="14.00" fill="#000000">ra </text>
<text text-anchor="start" x="372.3338" y="-663.9" font-family="Arial" font-size="14.00" fill="#666666">[double precision]</text>
<polygon fill="none" stroke="#000000" points="349,-622.5 349,-652.5 622,-652.5 622,-622.5 349,-622.5"/>
<text text-anchor="start" x="356" y="-633.9" font-family="Arial" font-size="14.00" fill="#000000">dec </text>
<text text-anchor="start" x="382.4558" y="-633.9" font-family="Arial" font-size="14.00" fill="#666666">[double precision]</text>
<polygon fill="none" stroke="#000000" points="349,-592.5 349,-622.5 622,-622.5 622,-592.5 349,-592.5"/>
<text text-anchor="start" x="356" y="-603.9" font-family="Arial" font-size="14.00" fill="#000000">epoch </text>
<text text-anchor="start" x="398.021" y="-603.9" font-family="Arial" font-size="14.00" fill="#666666">[varchar]</text>
<polygon fill="none" stroke="#000000" points="349,-562.5 349,-592.5 622,-592.5 622,-562.5 349,-562.5"/>
<text text-anchor="start" x="356" y="-573.9" font-family="Arial" font-size="14.00" fill="#000000">tract </text>
<text text-anchor="start" x="387.115" y="-573.9" font-family="Arial" font-size="14.00" fill="#666666">[integer]</text>
<polygon fill="none" stroke="#000000" points="349,-532.5 349,-562.5 622,-562.5 622,-532.5 349,-532.5"/>
<text text-anchor="start" x="356" y="-543.9" font-family="Arial" font-size="14.00" fill="#000000">patch </text>
<text text-anchor="start" x="394.129" y="-543.9" font-family="Arial" font-size="14.00" fill="#666666">[integer]</text>
<polygon fill="none" stroke="#000000" points="349,-502.5 349,-532.5 622,-532.5 622,-502.5 349,-502.5"/>
<text text-anchor="start" x="356" y="-513.9" font-family="Arial" font-size="14.00" fill="#000000">target_type_id </text>
<text text-anchor="start" x="448.5904" y="-513.9" font-family="Arial" font-size="14.00" fill="#666666">[integer]</text>
<polygon fill="none" stroke="#000000" points="349,-472.5 349,-502.5 622,-502.5 622,-472.5 349,-472.5"/>
<text text-anchor="start" x="356" y="-483.9" font-family="Arial" font-size="14.00" fill="#000000">input_catalog_id </text>
<text text-anchor="start" x="461.8176" y="-483.9" font-family="Arial" font-size="14.00" fill="#666666">[integer]</text>
<polygon fill="none" stroke="#000000" points="349,-442.5 349,-472.5 622,-472.5 622,-442.5 349,-442.5"/>
<text text-anchor="start" x="356" y="-453.9" font-family="Arial" font-size="14.00" fill="#000000">mag_thresh </text>
<text text-anchor="start" x="433.798" y="-453.9" font-family="Arial" font-size="14.00" fill="#666666">[double precision]</text>
<polygon fill="none" stroke="#000000" points="349,-412.5 349,-442.5 622,-442.5 622,-412.5 349,-412.5"/>
<text text-anchor="start" x="356" y="-423.9" font-family="Arial" font-size="14.00" fill="#000000">version </text>
<text text-anchor="start" x="405.0056" y="-423.9" font-family="Arial" font-size="14.00" fill="#666666">[varchar]</text>
<polygon fill="none" stroke="#000000" points="349,-382.5 349,-412.5 622,-412.5 622,-382.5 349,-382.5"/>
<text text-anchor="start" x="356" y="-393.9" font-family="Arial" font-size="14.00" fill="#000000">created_at </text>
<text text-anchor="start" x="426.028" y="-393.9" font-family="Arial" font-size="14.00" fill="#666666">[timestamp without time zone]</text>
<polygon fill="none" stroke="#000000" points="349,-352.5 349,-382.5 622,-382.5 622,-352.5 349,-352.5"/>
<text text-anchor="start" x="355.9636" y="-363.9" font-family="Arial" font-size="14.00" fill="#000000">updated_at </text>
<text text-anchor="start" x="429.8962" y="-363.9" font-family="Arial" font-size="14.00" fill="#666666">[timestamp without time zone]</text>
<polygon fill="none" stroke="#000000" stroke-width="3" points="347,-351.5 347,-809.5 623,-809.5 623,-351.5 347,-351.5"/>
</g>
<!-- public.target_type -->
<g id="node2" class="node">
<title>public.target_type</title>
<polygon fill="#efefef" stroke="transparent" points="131,-192.5 131,-227.5 434,-227.5 434,-192.5 131,-192.5"/>
<polygon fill="none" stroke="#000000" points="131,-192.5 131,-227.5 434,-227.5 434,-192.5 131,-192.5"/>
<text text-anchor="start" x="147.6934" y="-205.3" font-family="Arial Bold" font-size="18.00" fill="#000000">public.target_type</text>
<text text-anchor="start" x="289.7386" y="-205.3" font-family="Arial" font-size="14.00" fill="#000000">    </text>
<text text-anchor="start" x="323.9434" y="-205.3" font-family="Arial" font-size="14.00" fill="#666666">[BASE TABLE]</text>
<polygon fill="none" stroke="#000000" points="131,-162.5 131,-192.5 434,-192.5 434,-162.5 131,-162.5"/>
<text text-anchor="start" x="138" y="-173.9" font-family="Arial" font-size="14.00" fill="#000000">target_type_id    </text>
<text text-anchor="start" x="260.9046" y="-173.9" font-family="Arial" font-size="14.00" fill="#666666">[integer]</text>
<polygon fill="none" stroke="#000000" points="131,-132.5 131,-162.5 434,-162.5 434,-132.5 131,-132.5"/>
<text text-anchor="start" x="138" y="-143.9" font-family="Arial" font-size="14.00" fill="#000000">target_type_name    </text>
<text text-anchor="start" x="285.0238" y="-143.9" font-family="Arial" font-size="14.00" fill="#666666">[varchar]</text>
<polygon fill="none" stroke="#000000" points="131,-102.5 131,-132.5 434,-132.5 434,-102.5 131,-102.5"/>
<text text-anchor="start" x="138" y="-113.9" font-family="Arial" font-size="14.00" fill="#000000">target_type_description    </text>
<text text-anchor="start" x="317.6928" y="-113.9" font-family="Arial" font-size="14.00" fill="#666666">[varchar]</text>
<polygon fill="none" stroke="#000000" points="131,-72.5 131,-102.5 434,-102.5 434,-72.5 131,-72.5"/>
<text text-anchor="start" x="138" y="-83.9" font-family="Arial" font-size="14.00" fill="#000000">created_at    </text>
<text text-anchor="start" x="238.3422" y="-83.9" font-family="Arial" font-size="14.00" fill="#666666">[timestamp without time zone]</text>
<polygon fill="none" stroke="#000000" points="131,-42.5 131,-72.5 434,-72.5 434,-42.5 131,-42.5"/>
<text text-anchor="start" x="137.8065" y="-53.9" font-family="Arial" font-size="14.00" fill="#000000">updated_at    </text>
<text text-anchor="start" x="242.0533" y="-53.9" font-family="Arial" font-size="14.00" fill="#666666">[timestamp without time zone]</text>
</g>
<!-- public.sky&#45;&gt;public.target_type -->
<g id="edge1" class="edge">
<title>public.sky:target_type_id&#45;&gt;public.target_type:target_type_id</title>
<path fill="none" stroke="#000000" d="M338.649,-516.9046C258.7318,-507.2311 299.3503,-381.9473 349,-307 371.6577,-272.7978 411.3423,-305.2022 434,-271 456.9499,-236.3566 475.5556,-177.5 434,-177.5"/>
<polygon fill="#000000" stroke="#000000" points="339.0165,-516.9256 348.7415,-521.9926 344.0083,-517.2128 349,-517.5 349,-517.5 349,-517.5 344.0083,-517.2128 349.2585,-513.0074 339.0165,-516.9256 339.0165,-516.9256"/>
<text text-anchor="start" x="7.472" y="-527.5" font-family="Arial" font-size="10.00" fill="#000000">FOREIGN KEY (target_type_id) REFERENCES target_type(target_type_id)</text>
</g>
<!-- public.input_catalog -->
<g id="node3" class="node">
<title>public.input_catalog</title>
<polygon fill="#efefef" stroke="transparent" points="538,-192.5 538,-227.5 841,-227.5 841,-192.5 538,-192.5"/>
<polygon fill="none" stroke="#000000" points="538,-192.5 538,-227.5 841,-227.5 841,-192.5 538,-192.5"/>
<text text-anchor="start" x="546.1902" y="-205.3" font-family="Arial Bold" font-size="18.00" fill="#000000">public.input_catalog</text>
<text text-anchor="start" x="705.2418" y="-205.3" font-family="Arial" font-size="14.00" fill="#000000">    </text>
<text text-anchor="start" x="739.4466" y="-205.3" font-family="Arial" font-size="14.00" fill="#666666">[BASE TABLE]</text>
<polygon fill="none" stroke="#000000" points="538,-162.5 538,-192.5 841,-192.5 841,-162.5 538,-162.5"/>
<text text-anchor="start" x="545" y="-173.9" font-family="Arial" font-size="14.00" fill="#000000">input_catalog_id    </text>
<text text-anchor="start" x="681.1318" y="-173.9" font-family="Arial" font-size="14.00" fill="#666666">[integer]</text>
<polygon fill="none" stroke="#000000" points="538,-132.5 538,-162.5 841,-162.5 841,-132.5 538,-132.5"/>
<text text-anchor="start" x="545" y="-143.9" font-family="Arial" font-size="14.00" fill="#000000">input_catalog_name    </text>
<text text-anchor="start" x="705.251" y="-143.9" font-family="Arial" font-size="14.00" fill="#666666">[varchar]</text>
<polygon fill="none" stroke="#000000" points="538,-102.5 538,-132.5 841,-132.5 841,-102.5 538,-102.5"/>
<text text-anchor="start" x="545" y="-113.9" font-family="Arial" font-size="14.00" fill="#000000">input_catalog_description    </text>
<text text-anchor="start" x="737.92" y="-113.9" font-family="Arial" font-size="14.00" fill="#666666">[varchar]</text>
<polygon fill="none" stroke="#000000" points="538,-72.5 538,-102.5 841,-102.5 841,-72.5 538,-72.5"/>
<text text-anchor="start" x="545" y="-83.9" font-family="Arial" font-size="14.00" fill="#000000">created_at    </text>
<text text-anchor="start" x="645.3422" y="-83.9" font-family="Arial" font-size="14.00" fill="#666666">[timestamp without time zone]</text>
<polygon fill="none" stroke="#000000" points="538,-42.5 538,-72.5 841,-72.5 841,-42.5 538,-42.5"/>
<text text-anchor="start" x="544.8065" y="-53.9" font-family="Arial" font-size="14.00" fill="#000000">updated_at    </text>
<text text-anchor="start" x="649.0533" y="-53.9" font-family="Arial" font-size="14.00" fill="#666666">[timestamp without time zone]</text>
</g>
<!-- public.sky&#45;&gt;public.input_catalog -->
<g id="edge2" class="edge">
<title>public.sky:input_catalog_id&#45;&gt;public.input_catalog:input_catalog_id</title>
<path fill="none" stroke="#000000" d="M632.117,-486.8272C698.9661,-477.3942 664.1778,-370.9643 622,-307 599.6405,-273.0909 560.3595,-304.9091 538,-271 515.124,-236.3077 496.4444,-177.5 538,-177.5"/>
<polygon fill="#000000" stroke="#000000" points="631.978,-486.8364 621.7014,-483.0099 626.989,-487.1682 622,-487.5 622,-487.5 622,-487.5 626.989,-487.1682 622.2986,-491.9901 631.978,-486.8364 631.978,-486.8364"/>
<text text-anchor="start" x="629.3" y="-497.5" font-family="Arial" font-size="10.00" fill="#000000">FOREIGN KEY (input_catalog_id) REFERENCES input_catalog(input_catalog_id)</text>
</g>
</g>
</svg>
