<?xml version="1.0" encoding="UTF-8" standalone="no"?>
<!DOCTYPE svg PUBLIC "-//W3C//DTD SVG 1.1//EN"
 "http://www.w3.org/Graphics/SVG/1.1/DTD/svg11.dtd">
<!-- Generated by graphviz version 2.40.1 (20161225.0304)
 -->
<!-- Title: public.target Pages: 1 -->
<svg width="1618pt" height="2849pt"
 viewBox="0.00 0.00 1618.00 2849.00" xmlns="http://www.w3.org/2000/svg" xmlns:xlink="http://www.w3.org/1999/xlink">
<g id="graph0" class="graph" transform="scale(1 1) rotate(0) translate(4 2845)">
<title>public.target</title>
<polygon fill="#ffffff" stroke="transparent" points="-4,4 -4,-2845 1614,-2845 1614,4 -4,4"/>
<!-- public.target -->
<g id="node1" class="node">
<title>public.target</title>
<polygon fill="#efefef" stroke="transparent" points="1279.5,-2302.5 1279.5,-2337.5 1552.5,-2337.5 1552.5,-2302.5 1279.5,-2302.5"/>
<polygon fill="none" stroke="#000000" points="1279.5,-2302.5 1279.5,-2337.5 1552.5,-2337.5 1552.5,-2302.5 1279.5,-2302.5"/>
<text text-anchor="start" x="1303.2038" y="-2315.3" font-family="Arial Bold" font-size="18.00" fill="#000000">public.target</text>
<text text-anchor="start" x="1401.2282" y="-2315.3" font-family="Arial" font-size="14.00" fill="#000000">    </text>
<text text-anchor="start" x="1435.433" y="-2315.3" font-family="Arial" font-size="14.00" fill="#666666">[BASE TABLE]</text>
<polygon fill="none" stroke="#000000" points="1279.5,-2272.5 1279.5,-2302.5 1552.5,-2302.5 1552.5,-2272.5 1279.5,-2272.5"/>
<text text-anchor="start" x="1286.5" y="-2283.9" font-family="Arial" font-size="14.00" fill="#000000">target_id </text>
<text text-anchor="start" x="1344.852" y="-2283.9" font-family="Arial" font-size="14.00" fill="#666666">[bigint]</text>
<polygon fill="none" stroke="#000000" points="1279.5,-2242.5 1279.5,-2272.5 1552.5,-2272.5 1552.5,-2242.5 1279.5,-2242.5"/>
<text text-anchor="start" x="1286.5" y="-2253.9" font-family="Arial" font-size="14.00" fill="#000000">proposal_id </text>
<text text-anchor="start" x="1362.7426" y="-2253.9" font-family="Arial" font-size="14.00" fill="#666666">[varchar]</text>
<polygon fill="none" stroke="#000000" points="1279.5,-2212.5 1279.5,-2242.5 1552.5,-2242.5 1552.5,-2212.5 1279.5,-2212.5"/>
<text text-anchor="start" x="1286.5" y="-2223.9" font-family="Arial" font-size="14.00" fill="#000000">obj_id </text>
<text text-anchor="start" x="1327.7342" y="-2223.9" font-family="Arial" font-size="14.00" fill="#666666">[bigint]</text>
<polygon fill="none" stroke="#000000" points="1279.5,-2182.5 1279.5,-2212.5 1552.5,-2212.5 1552.5,-2182.5 1279.5,-2182.5"/>
<text text-anchor="start" x="1286.5" y="-2193.9" font-family="Arial" font-size="14.00" fill="#000000">ra </text>
<text text-anchor="start" x="1302.8338" y="-2193.9" font-family="Arial" font-size="14.00" fill="#666666">[double precision]</text>
<polygon fill="none" stroke="#000000" points="1279.5,-2152.5 1279.5,-2182.5 1552.5,-2182.5 1552.5,-2152.5 1279.5,-2152.5"/>
<text text-anchor="start" x="1286.5" y="-2163.9" font-family="Arial" font-size="14.00" fill="#000000">dec </text>
<text text-anchor="start" x="1312.9558" y="-2163.9" font-family="Arial" font-size="14.00" fill="#666666">[double precision]</text>
<polygon fill="none" stroke="#000000" points="1279.5,-2122.5 1279.5,-2152.5 1552.5,-2152.5 1552.5,-2122.5 1279.5,-2122.5"/>
<text text-anchor="start" x="1286.5" y="-2133.9" font-family="Arial" font-size="14.00" fill="#000000">epoch </text>
<text text-anchor="start" x="1328.521" y="-2133.9" font-family="Arial" font-size="14.00" fill="#666666">[varchar]</text>
<polygon fill="none" stroke="#000000" points="1279.5,-2092.5 1279.5,-2122.5 1552.5,-2122.5 1552.5,-2092.5 1279.5,-2092.5"/>
<text text-anchor="start" x="1286.5" y="-2103.9" font-family="Arial" font-size="14.00" fill="#000000">parallax </text>
<text text-anchor="start" x="1339.3948" y="-2103.9" font-family="Arial" font-size="14.00" fill="#666666">[double precision]</text>
<polygon fill="none" stroke="#000000" points="1279.5,-2062.5 1279.5,-2092.5 1552.5,-2092.5 1552.5,-2062.5 1279.5,-2062.5"/>
<text text-anchor="start" x="1286.5" y="-2073.9" font-family="Arial" font-size="14.00" fill="#000000">pmra </text>
<text text-anchor="start" x="1322.277" y="-2073.9" font-family="Arial" font-size="14.00" fill="#666666">[double precision]</text>
<polygon fill="none" stroke="#000000" points="1279.5,-2032.5 1279.5,-2062.5 1552.5,-2062.5 1552.5,-2032.5 1279.5,-2032.5"/>
<text text-anchor="start" x="1286.5" y="-2043.9" font-family="Arial" font-size="14.00" fill="#000000">pmdec </text>
<text text-anchor="start" x="1332.399" y="-2043.9" font-family="Arial" font-size="14.00" fill="#666666">[double precision]</text>
<polygon fill="none" stroke="#000000" points="1279.5,-2002.5 1279.5,-2032.5 1552.5,-2032.5 1552.5,-2002.5 1279.5,-2002.5"/>
<text text-anchor="start" x="1286.5" y="-2013.9" font-family="Arial" font-size="14.00" fill="#000000">tract </text>
<text text-anchor="start" x="1317.615" y="-2013.9" font-family="Arial" font-size="14.00" fill="#666666">[integer]</text>
<polygon fill="none" stroke="#000000" points="1279.5,-1972.5 1279.5,-2002.5 1552.5,-2002.5 1552.5,-1972.5 1279.5,-1972.5"/>
<text text-anchor="start" x="1286.5" y="-1983.9" font-family="Arial" font-size="14.00" fill="#000000">patch </text>
<text text-anchor="start" x="1324.629" y="-1983.9" font-family="Arial" font-size="14.00" fill="#666666">[integer]</text>
<polygon fill="none" stroke="#000000" points="1279.5,-1942.5 1279.5,-1972.5 1552.5,-1972.5 1552.5,-1942.5 1279.5,-1942.5"/>
<text text-anchor="start" x="1286.5" y="-1953.9" font-family="Arial" font-size="14.00" fill="#000000">target_type_id </text>
<text text-anchor="start" x="1379.0904" y="-1953.9" font-family="Arial" font-size="14.00" fill="#666666">[integer]</text>
<polygon fill="none" stroke="#000000" points="1279.5,-1912.5 1279.5,-1942.5 1552.5,-1942.5 1552.5,-1912.5 1279.5,-1912.5"/>
<text text-anchor="start" x="1286.5" y="-1923.9" font-family="Arial" font-size="14.00" fill="#000000">input_catalog_id </text>
<text text-anchor="start" x="1392.3176" y="-1923.9" font-family="Arial" font-size="14.00" fill="#666666">[integer]</text>
<polygon fill="none" stroke="#000000" points="1279.5,-1882.5 1279.5,-1912.5 1552.5,-1912.5 1552.5,-1882.5 1279.5,-1882.5"/>
<text text-anchor="start" x="1286.5" y="-1893.9" font-family="Arial" font-size="14.00" fill="#000000">fiber_mag_g </text>
<text text-anchor="start" x="1368.1872" y="-1893.9" font-family="Arial" font-size="14.00" fill="#666666">[double precision]</text>
<polygon fill="none" stroke="#000000" points="1279.5,-1852.5 1279.5,-1882.5 1552.5,-1882.5 1552.5,-1852.5 1279.5,-1852.5"/>
<text text-anchor="start" x="1286.5" y="-1863.9" font-family="Arial" font-size="14.00" fill="#000000">fiber_mag_r </text>
<text text-anchor="start" x="1365.0652" y="-1863.9" font-family="Arial" font-size="14.00" fill="#666666">[double precision]</text>
<polygon fill="none" stroke="#000000" points="1279.5,-1822.5 1279.5,-1852.5 1552.5,-1852.5 1552.5,-1822.5 1279.5,-1822.5"/>
<text text-anchor="start" x="1286.5" y="-1833.9" font-family="Arial" font-size="14.00" fill="#000000">fiber_mag_i </text>
<text text-anchor="start" x="1363.5112" y="-1833.9" font-family="Arial" font-size="14.00" fill="#666666">[double precision]</text>
<polygon fill="none" stroke="#000000" points="1279.5,-1792.5 1279.5,-1822.5 1552.5,-1822.5 1552.5,-1792.5 1279.5,-1792.5"/>
<text text-anchor="start" x="1286.5" y="-1803.9" font-family="Arial" font-size="14.00" fill="#000000">fiber_mag_z </text>
<text text-anchor="start" x="1367.4046" y="-1803.9" font-family="Arial" font-size="14.00" fill="#666666">[double precision]</text>
<polygon fill="none" stroke="#000000" points="1279.5,-1762.5 1279.5,-1792.5 1552.5,-1792.5 1552.5,-1762.5 1279.5,-1762.5"/>
<text text-anchor="start" x="1286.5" y="-1773.9" font-family="Arial" font-size="14.00" fill="#000000">fiber_mag_y </text>
<text text-anchor="start" x="1367.4046" y="-1773.9" font-family="Arial" font-size="14.00" fill="#666666">[double precision]</text>
<polygon fill="none" stroke="#000000" points="1279.5,-1732.5 1279.5,-1762.5 1552.5,-1762.5 1552.5,-1732.5 1279.5,-1732.5"/>
<text text-anchor="start" x="1286.5" y="-1743.9" font-family="Arial" font-size="14.00" fill="#000000">fiber_mag_j </text>
<text text-anchor="start" x="1363.5112" y="-1743.9" font-family="Arial" font-size="14.00" fill="#666666">[double precision]</text>
<polygon fill="none" stroke="#000000" points="1279.5,-1702.5 1279.5,-1732.5 1552.5,-1732.5 1552.5,-1702.5 1279.5,-1702.5"/>
<text text-anchor="start" x="1286.5" y="-1713.9" font-family="Arial" font-size="14.00" fill="#000000">psf_mag_g </text>
<text text-anchor="start" x="1359.6374" y="-1713.9" font-family="Arial" font-size="14.00" fill="#666666">[double precision]</text>
<polygon fill="none" stroke="#000000" points="1279.5,-1672.5 1279.5,-1702.5 1552.5,-1702.5 1552.5,-1672.5 1279.5,-1672.5"/>
<text text-anchor="start" x="1286.5" y="-1683.9" font-family="Arial" font-size="14.00" fill="#000000">psf_mag_r </text>
<text text-anchor="start" x="1356.5154" y="-1683.9" font-family="Arial" font-size="14.00" fill="#666666">[double precision]</text>
<polygon fill="none" stroke="#000000" points="1279.5,-1642.5 1279.5,-1672.5 1552.5,-1672.5 1552.5,-1642.5 1279.5,-1642.5"/>
<text text-anchor="start" x="1286.5" y="-1653.9" font-family="Arial" font-size="14.00" fill="#000000">psf_mag_i </text>
<text text-anchor="start" x="1354.9614" y="-1653.9" font-family="Arial" font-size="14.00" fill="#666666">[double precision]</text>
<polygon fill="none" stroke="#000000" points="1279.5,-1612.5 1279.5,-1642.5 1552.5,-1642.5 1552.5,-1612.5 1279.5,-1612.5"/>
<text text-anchor="start" x="1286.5" y="-1623.9" font-family="Arial" font-size="14.00" fill="#000000">psf_mag_z </text>
<text text-anchor="start" x="1358.8548" y="-1623.9" font-family="Arial" font-size="14.00" fill="#666666">[double precision]</text>
<polygon fill="none" stroke="#000000" points="1279.5,-1582.5 1279.5,-1612.5 1552.5,-1612.5 1552.5,-1582.5 1279.5,-1582.5"/>
<text text-anchor="start" x="1286.5" y="-1593.9" font-family="Arial" font-size="14.00" fill="#000000">psf_mag_y </text>
<text text-anchor="start" x="1358.8548" y="-1593.9" font-family="Arial" font-size="14.00" fill="#666666">[double precision]</text>
<polygon fill="none" stroke="#000000" points="1279.5,-1552.5 1279.5,-1582.5 1552.5,-1582.5 1552.5,-1552.5 1279.5,-1552.5"/>
<text text-anchor="start" x="1286.5" y="-1563.9" font-family="Arial" font-size="14.00" fill="#000000">psf_mag_j </text>
<text text-anchor="start" x="1354.9614" y="-1563.9" font-family="Arial" font-size="14.00" fill="#666666">[double precision]</text>
<polygon fill="none" stroke="#000000" points="1279.5,-1522.5 1279.5,-1552.5 1552.5,-1552.5 1552.5,-1522.5 1279.5,-1522.5"/>
<text text-anchor="start" x="1286.5" y="-1533.9" font-family="Arial" font-size="14.00" fill="#000000">psf_flux_g </text>
<text text-anchor="start" x="1354.1914" y="-1533.9" font-family="Arial" font-size="14.00" fill="#666666">[double precision]</text>
<polygon fill="none" stroke="#000000" points="1279.5,-1492.5 1279.5,-1522.5 1552.5,-1522.5 1552.5,-1492.5 1279.5,-1492.5"/>
<text text-anchor="start" x="1286.5" y="-1503.9" font-family="Arial" font-size="14.00" fill="#000000">psf_flux_r </text>
<text text-anchor="start" x="1351.0694" y="-1503.9" font-family="Arial" font-size="14.00" fill="#666666">[double precision]</text>
<polygon fill="none" stroke="#000000" points="1279.5,-1462.5 1279.5,-1492.5 1552.5,-1492.5 1552.5,-1462.5 1279.5,-1462.5"/>
<text text-anchor="start" x="1286.5" y="-1473.9" font-family="Arial" font-size="14.00" fill="#000000">psf_flux_i </text>
<text text-anchor="start" x="1349.5154" y="-1473.9" font-family="Arial" font-size="14.00" fill="#666666">[double precision]</text>
<polygon fill="none" stroke="#000000" points="1279.5,-1432.5 1279.5,-1462.5 1552.5,-1462.5 1552.5,-1432.5 1279.5,-1432.5"/>
<text text-anchor="start" x="1286.5" y="-1443.9" font-family="Arial" font-size="14.00" fill="#000000">psf_flux_z </text>
<text text-anchor="start" x="1353.4088" y="-1443.9" font-family="Arial" font-size="14.00" fill="#666666">[double precision]</text>
<polygon fill="none" stroke="#000000" points="1279.5,-1402.5 1279.5,-1432.5 1552.5,-1432.5 1552.5,-1402.5 1279.5,-1402.5"/>
<text text-anchor="start" x="1286.5" y="-1413.9" font-family="Arial" font-size="14.00" fill="#000000">psf_flux_y </text>
<text text-anchor="start" x="1353.4088" y="-1413.9" font-family="Arial" font-size="14.00" fill="#666666">[double precision]</text>
<polygon fill="none" stroke="#000000" points="1279.5,-1372.5 1279.5,-1402.5 1552.5,-1402.5 1552.5,-1372.5 1279.5,-1372.5"/>
<text text-anchor="start" x="1286.5" y="-1383.9" font-family="Arial" font-size="14.00" fill="#000000">psf_flux_j </text>
<text text-anchor="start" x="1349.5154" y="-1383.9" font-family="Arial" font-size="14.00" fill="#666666">[double precision]</text>
<polygon fill="none" stroke="#000000" points="1279.5,-1342.5 1279.5,-1372.5 1552.5,-1372.5 1552.5,-1342.5 1279.5,-1342.5"/>
<text text-anchor="start" x="1286.5" y="-1353.9" font-family="Arial" font-size="14.00" fill="#000000">priority </text>
<text text-anchor="start" x="1332.3808" y="-1353.9" font-family="Arial" font-size="14.00" fill="#666666">[double precision]</text>
<polygon fill="none" stroke="#000000" points="1279.5,-1312.5 1279.5,-1342.5 1552.5,-1342.5 1552.5,-1312.5 1279.5,-1312.5"/>
<text text-anchor="start" x="1286.5" y="-1323.9" font-family="Arial" font-size="14.00" fill="#000000">effective_exptime </text>
<text text-anchor="start" x="1399.305" y="-1323.9" font-family="Arial" font-size="14.00" fill="#666666">[double precision]</text>
<polygon fill="none" stroke="#000000" points="1279.5,-1282.5 1279.5,-1312.5 1552.5,-1312.5 1552.5,-1282.5 1279.5,-1282.5"/>
<text text-anchor="start" x="1286.5" y="-1293.9" font-family="Arial" font-size="14.00" fill="#000000">is_medium_resolution </text>
<text text-anchor="start" x="1426.5154" y="-1293.9" font-family="Arial" font-size="14.00" fill="#666666">[boolean]</text>
<polygon fill="none" stroke="#000000" points="1279.5,-1252.5 1279.5,-1282.5 1552.5,-1282.5 1552.5,-1252.5 1279.5,-1252.5"/>
<text text-anchor="start" x="1286.5" y="-1263.9" font-family="Arial" font-size="14.00" fill="#000000">qa_relative_throughput </text>
<text text-anchor="start" x="1433.5532" y="-1263.9" font-family="Arial" font-size="14.00" fill="#666666">[double precision]</text>
<polygon fill="none" stroke="#000000" points="1279.5,-1222.5 1279.5,-1252.5 1552.5,-1252.5 1552.5,-1222.5 1279.5,-1222.5"/>
<text text-anchor="start" x="1286.5" y="-1233.9" font-family="Arial" font-size="14.00" fill="#000000">qa_relative_noise </text>
<text text-anchor="start" x="1400.0876" y="-1233.9" font-family="Arial" font-size="14.00" fill="#666666">[double precision]</text>
<polygon fill="none" stroke="#000000" points="1279.5,-1192.5 1279.5,-1222.5 1552.5,-1222.5 1552.5,-1192.5 1279.5,-1192.5"/>
<text text-anchor="start" x="1286.5" y="-1203.9" font-family="Arial" font-size="14.00" fill="#000000">qa_reference_lambda </text>
<text text-anchor="start" x="1426.5434" y="-1203.9" font-family="Arial" font-size="14.00" fill="#666666">[double precision]</text>
<polygon fill="none" stroke="#000000" points="1279.5,-1162.5 1279.5,-1192.5 1552.5,-1192.5 1552.5,-1162.5 1279.5,-1162.5"/>
<text text-anchor="start" x="1286.5" y="-1173.9" font-family="Arial" font-size="14.00" fill="#000000">is_cluster </text>
<text text-anchor="start" x="1349.5028" y="-1173.9" font-family="Arial" font-size="14.00" fill="#666666">[boolean]</text>
<polygon fill="none" stroke="#000000" points="1279.5,-1132.5 1279.5,-1162.5 1552.5,-1162.5 1552.5,-1132.5 1279.5,-1132.5"/>
<text text-anchor="start" x="1286.5" y="-1143.9" font-family="Arial" font-size="14.00" fill="#000000">created_at </text>
<text text-anchor="start" x="1356.528" y="-1143.9" font-family="Arial" font-size="14.00" fill="#666666">[timestamp without time zone]</text>
<polygon fill="none" stroke="#000000" points="1279.5,-1102.5 1279.5,-1132.5 1552.5,-1132.5 1552.5,-1102.5 1279.5,-1102.5"/>
<text text-anchor="start" x="1286.4636" y="-1113.9" font-family="Arial" font-size="14.00" fill="#000000">updated_at </text>
<text text-anchor="start" x="1360.3962" y="-1113.9" font-family="Arial" font-size="14.00" fill="#666666">[timestamp without time zone]</text>
<polygon fill="none" stroke="#000000" points="1279.5,-1072.5 1279.5,-1102.5 1552.5,-1102.5 1552.5,-1072.5 1279.5,-1072.5"/>
<text text-anchor="start" x="1286.5" y="-1083.9" font-family="Arial" font-size="14.00" fill="#000000">filter_g </text>
<text text-anchor="start" x="1332.3934" y="-1083.9" font-family="Arial" font-size="14.00" fill="#666666">[varchar]</text>
<polygon fill="none" stroke="#000000" points="1279.5,-1042.5 1279.5,-1072.5 1552.5,-1072.5 1552.5,-1042.5 1279.5,-1042.5"/>
<text text-anchor="start" x="1286.5" y="-1053.9" font-family="Arial" font-size="14.00" fill="#000000">filter_r </text>
<text text-anchor="start" x="1329.2714" y="-1053.9" font-family="Arial" font-size="14.00" fill="#666666">[varchar]</text>
<polygon fill="none" stroke="#000000" points="1279.5,-1012.5 1279.5,-1042.5 1552.5,-1042.5 1552.5,-1012.5 1279.5,-1012.5"/>
<text text-anchor="start" x="1286.5" y="-1023.9" font-family="Arial" font-size="14.00" fill="#000000">filter_i </text>
<text text-anchor="start" x="1327.7174" y="-1023.9" font-family="Arial" font-size="14.00" fill="#666666">[varchar]</text>
<polygon fill="none" stroke="#000000" points="1279.5,-982.5 1279.5,-1012.5 1552.5,-1012.5 1552.5,-982.5 1279.5,-982.5"/>
<text text-anchor="start" x="1286.5" y="-993.9" font-family="Arial" font-size="14.00" fill="#000000">filter_z </text>
<text text-anchor="start" x="1331.6108" y="-993.9" font-family="Arial" font-size="14.00" fill="#666666">[varchar]</text>
<polygon fill="none" stroke="#000000" points="1279.5,-952.5 1279.5,-982.5 1552.5,-982.5 1552.5,-952.5 1279.5,-952.5"/>
<text text-anchor="start" x="1286.5" y="-963.9" font-family="Arial" font-size="14.00" fill="#000000">filter_y </text>
<text text-anchor="start" x="1331.6108" y="-963.9" font-family="Arial" font-size="14.00" fill="#666666">[varchar]</text>
<polygon fill="none" stroke="#000000" points="1279.5,-922.5 1279.5,-952.5 1552.5,-952.5 1552.5,-922.5 1279.5,-922.5"/>
<text text-anchor="start" x="1286.5" y="-933.9" font-family="Arial" font-size="14.00" fill="#000000">filter_j </text>
<text text-anchor="start" x="1327.7174" y="-933.9" font-family="Arial" font-size="14.00" fill="#666666">[varchar]</text>
<polygon fill="none" stroke="#000000" points="1279.5,-892.5 1279.5,-922.5 1552.5,-922.5 1552.5,-892.5 1279.5,-892.5"/>
<text text-anchor="start" x="1286.5" y="-903.9" font-family="Arial" font-size="14.00" fill="#000000">psf_mag_error_g </text>
<text text-anchor="start" x="1396.967" y="-903.9" font-family="Arial" font-size="14.00" fill="#666666">[double precision]</text>
<polygon fill="none" stroke="#000000" points="1279.5,-862.5 1279.5,-892.5 1552.5,-892.5 1552.5,-862.5 1279.5,-862.5"/>
<text text-anchor="start" x="1286.5" y="-873.9" font-family="Arial" font-size="14.00" fill="#000000">psf_mag_error_r </text>
<text text-anchor="start" x="1393.845" y="-873.9" font-family="Arial" font-size="14.00" fill="#666666">[double precision]</text>
<polygon fill="none" stroke="#000000" points="1279.5,-832.5 1279.5,-862.5 1552.5,-862.5 1552.5,-832.5 1279.5,-832.5"/>
<text text-anchor="start" x="1286.5" y="-843.9" font-family="Arial" font-size="14.00" fill="#000000">psf_mag_error_i </text>
<text text-anchor="start" x="1392.291" y="-843.9" font-family="Arial" font-size="14.00" fill="#666666">[double precision]</text>
<polygon fill="none" stroke="#000000" points="1279.5,-802.5 1279.5,-832.5 1552.5,-832.5 1552.5,-802.5 1279.5,-802.5"/>
<text text-anchor="start" x="1286.5" y="-813.9" font-family="Arial" font-size="14.00" fill="#000000">psf_mag_error_z </text>
<text text-anchor="start" x="1396.1844" y="-813.9" font-family="Arial" font-size="14.00" fill="#666666">[double precision]</text>
<polygon fill="none" stroke="#000000" points="1279.5,-772.5 1279.5,-802.5 1552.5,-802.5 1552.5,-772.5 1279.5,-772.5"/>
<text text-anchor="start" x="1286.5" y="-783.9" font-family="Arial" font-size="14.00" fill="#000000">psf_mag_error_y </text>
<text text-anchor="start" x="1396.1844" y="-783.9" font-family="Arial" font-size="14.00" fill="#666666">[double precision]</text>
<polygon fill="none" stroke="#000000" points="1279.5,-742.5 1279.5,-772.5 1552.5,-772.5 1552.5,-742.5 1279.5,-742.5"/>
<text text-anchor="start" x="1286.5" y="-753.9" font-family="Arial" font-size="14.00" fill="#000000">psf_mag_error_j </text>
<text text-anchor="start" x="1392.291" y="-753.9" font-family="Arial" font-size="14.00" fill="#666666">[double precision]</text>
<polygon fill="none" stroke="#000000" points="1279.5,-712.5 1279.5,-742.5 1552.5,-742.5 1552.5,-712.5 1279.5,-712.5"/>
<text text-anchor="start" x="1286.5" y="-723.9" font-family="Arial" font-size="14.00" fill="#000000">psf_flux_error_g </text>
<text text-anchor="start" x="1391.521" y="-723.9" font-family="Arial" font-size="14.00" fill="#666666">[double precision]</text>
<polygon fill="none" stroke="#000000" points="1279.5,-682.5 1279.5,-712.5 1552.5,-712.5 1552.5,-682.5 1279.5,-682.5"/>
<text text-anchor="start" x="1286.5" y="-693.9" font-family="Arial" font-size="14.00" fill="#000000">psf_flux_error_r </text>
<text text-anchor="start" x="1388.399" y="-693.9" font-family="Arial" font-size="14.00" fill="#666666">[double precision]</text>
<polygon fill="none" stroke="#000000" points="1279.5,-652.5 1279.5,-682.5 1552.5,-682.5 1552.5,-652.5 1279.5,-652.5"/>
<text text-anchor="start" x="1286.5" y="-663.9" font-family="Arial" font-size="14.00" fill="#000000">psf_flux_error_i </text>
<text text-anchor="start" x="1386.845" y="-663.9" font-family="Arial" font-size="14.00" fill="#666666">[double precision]</text>
<polygon fill="none" stroke="#000000" points="1279.5,-622.5 1279.5,-652.5 1552.5,-652.5 1552.5,-622.5 1279.5,-622.5"/>
<text text-anchor="start" x="1286.5" y="-633.9" font-family="Arial" font-size="14.00" fill="#000000">psf_flux_error_z </text>
<text text-anchor="start" x="1390.7384" y="-633.9" font-family="Arial" font-size="14.00" fill="#666666">[double precision]</text>
<polygon fill="none" stroke="#000000" points="1279.5,-592.5 1279.5,-622.5 1552.5,-622.5 1552.5,-592.5 1279.5,-592.5"/>
<text text-anchor="start" x="1286.5" y="-603.9" font-family="Arial" font-size="14.00" fill="#000000">psf_flux_error_y </text>
<text text-anchor="start" x="1390.7384" y="-603.9" font-family="Arial" font-size="14.00" fill="#666666">[double precision]</text>
<polygon fill="none" stroke="#000000" points="1279.5,-562.5 1279.5,-592.5 1552.5,-592.5 1552.5,-562.5 1279.5,-562.5"/>
<text text-anchor="start" x="1286.5" y="-573.9" font-family="Arial" font-size="14.00" fill="#000000">psf_flux_error_j </text>
<text text-anchor="start" x="1386.845" y="-573.9" font-family="Arial" font-size="14.00" fill="#666666">[double precision]</text>
<polygon fill="none" stroke="#000000" points="1279.5,-532.5 1279.5,-562.5 1552.5,-562.5 1552.5,-532.5 1279.5,-532.5"/>
<text text-anchor="start" x="1286.5" y="-543.9" font-family="Arial" font-size="14.00" fill="#000000">ob_code </text>
<text text-anchor="start" x="1344.0862" y="-543.9" font-family="Arial" font-size="14.00" fill="#666666">[varchar]</text>
<polygon fill="none" stroke="#000000" stroke-width="3" points="1277.5,-531.5 1277.5,-2339.5 1553.5,-2339.5 1553.5,-531.5 1277.5,-531.5"/>
</g>
<!-- public.proposal -->
<g id="node3" class="node">
<title>public.proposal</title>
<polygon fill="#efefef" stroke="transparent" points="43.5,-372.5 43.5,-407.5 346.5,-407.5 346.5,-372.5 43.5,-372.5"/>
<polygon fill="none" stroke="#000000" points="43.5,-372.5 43.5,-407.5 346.5,-407.5 346.5,-372.5 43.5,-372.5"/>
<text text-anchor="start" x="70.7027" y="-385.3" font-family="Arial Bold" font-size="18.00" fill="#000000">public.proposal</text>
<text text-anchor="start" x="191.7293" y="-385.3" font-family="Arial" font-size="14.00" fill="#000000">    </text>
<text text-anchor="start" x="225.9341" y="-385.3" font-family="Arial" font-size="14.00" fill="#666666">[BASE TABLE]</text>
<polygon fill="none" stroke="#000000" points="43.5,-342.5 43.5,-372.5 346.5,-372.5 346.5,-342.5 43.5,-342.5"/>
<text text-anchor="start" x="50.5" y="-353.9" font-family="Arial" font-size="14.00" fill="#000000">proposal_id    </text>
<text text-anchor="start" x="157.0568" y="-353.9" font-family="Arial" font-size="14.00" fill="#666666">[varchar]</text>
<polygon fill="none" stroke="#000000" points="43.5,-312.5 43.5,-342.5 346.5,-342.5 346.5,-312.5 43.5,-312.5"/>
<text text-anchor="start" x="50.5" y="-323.9" font-family="Arial" font-size="14.00" fill="#000000">group_id    </text>
<text text-anchor="start" x="139.1676" y="-323.9" font-family="Arial" font-size="14.00" fill="#666666">[varchar]</text>
<polygon fill="none" stroke="#000000" points="43.5,-282.5 43.5,-312.5 346.5,-312.5 346.5,-282.5 43.5,-282.5"/>
<text text-anchor="start" x="50.5" y="-293.9" font-family="Arial" font-size="14.00" fill="#000000">pi_first_name    </text>
<text text-anchor="start" x="168.716" y="-293.9" font-family="Arial" font-size="14.00" fill="#666666">[varchar]</text>
<polygon fill="none" stroke="#000000" points="43.5,-252.5 43.5,-282.5 346.5,-282.5 346.5,-252.5 43.5,-252.5"/>
<text text-anchor="start" x="50.5" y="-263.9" font-family="Arial" font-size="14.00" fill="#000000">pi_last_name    </text>
<text text-anchor="start" x="167.9474" y="-263.9" font-family="Arial" font-size="14.00" fill="#666666">[varchar]</text>
<polygon fill="none" stroke="#000000" points="43.5,-222.5 43.5,-252.5 346.5,-252.5 346.5,-222.5 43.5,-222.5"/>
<text text-anchor="start" x="50.5" y="-233.9" font-family="Arial" font-size="14.00" fill="#000000">pi_middle_name    </text>
<text text-anchor="start" x="187.3892" y="-233.9" font-family="Arial" font-size="14.00" fill="#666666">[varchar]</text>
<polygon fill="none" stroke="#000000" points="43.5,-192.5 43.5,-222.5 346.5,-222.5 346.5,-192.5 43.5,-192.5"/>
<text text-anchor="start" x="50.5" y="-203.9" font-family="Arial" font-size="14.00" fill="#000000">rank    </text>
<text text-anchor="start" x="111.9306" y="-203.9" font-family="Arial" font-size="14.00" fill="#666666">[double precision]</text>
<polygon fill="none" stroke="#000000" points="43.5,-162.5 43.5,-192.5 346.5,-192.5 346.5,-162.5 43.5,-162.5"/>
<text text-anchor="start" x="50.5" y="-173.9" font-family="Arial" font-size="14.00" fill="#000000">grade    </text>
<text text-anchor="start" x="120.4958" y="-173.9" font-family="Arial" font-size="14.00" fill="#666666">[varchar]</text>
<polygon fill="none" stroke="#000000" points="43.5,-132.5 43.5,-162.5 346.5,-162.5 346.5,-132.5 43.5,-132.5"/>
<text text-anchor="start" x="50.5" y="-143.9" font-family="Arial" font-size="14.00" fill="#000000">allocated_time    </text>
<text text-anchor="start" x="174.9446" y="-143.9" font-family="Arial" font-size="14.00" fill="#666666">[double precision]</text>
<polygon fill="none" stroke="#000000" points="43.5,-102.5 43.5,-132.5 346.5,-132.5 346.5,-102.5 43.5,-102.5"/>
<text text-anchor="start" x="50.5" y="-113.9" font-family="Arial" font-size="14.00" fill="#000000">proposal_category_id    </text>
<text text-anchor="start" x="218.521" y="-113.9" font-family="Arial" font-size="14.00" fill="#666666">[integer]</text>
<polygon fill="none" stroke="#000000" points="43.5,-72.5 43.5,-102.5 346.5,-102.5 346.5,-72.5 43.5,-72.5"/>
<text text-anchor="start" x="50.5" y="-83.9" font-family="Arial" font-size="14.00" fill="#000000">created_at    </text>
<text text-anchor="start" x="150.8422" y="-83.9" font-family="Arial" font-size="14.00" fill="#666666">[timestamp without time zone]</text>
<polygon fill="none" stroke="#000000" points="43.5,-42.5 43.5,-72.5 346.5,-72.5 346.5,-42.5 43.5,-42.5"/>
<text text-anchor="start" x="50.3065" y="-53.9" font-family="Arial" font-size="14.00" fill="#000000">updated_at    </text>
<text text-anchor="start" x="154.5533" y="-53.9" font-family="Arial" font-size="14.00" fill="#666666">[timestamp without time zone]</text>
</g>
<!-- public.target&#45;&gt;public.proposal -->
<g id="edge2" class="edge">
<title>public.target:proposal_id&#45;&gt;public.proposal:proposal_id</title>
<path fill="none" stroke="#000000" d="M1273.8143,-2249.029C1195.5631,-2111.9617 360.6252,-357.5 346.5,-357.5"/>
<polygon fill="#000000" stroke="#000000" points="1273.927,-2249.1969 1275.7636,-2260.0079 1276.7135,-2253.3484 1279.5,-2257.5 1279.5,-2257.5 1279.5,-2257.5 1276.7135,-2253.3484 1283.2364,-2254.9921 1273.927,-2249.1969 1273.927,-2249.1969"/>
<text text-anchor="start" x="972.4875" y="-2267.5" font-family="Arial" font-size="10.00" fill="#000000">FOREIGN KEY (proposal_id) REFERENCES proposal(proposal_id)</text>
</g>
<!-- public.target_type -->
<g id="node4" class="node">
<title>public.target_type</title>
<polygon fill="#efefef" stroke="transparent" points="450.5,-282.5 450.5,-317.5 753.5,-317.5 753.5,-282.5 450.5,-282.5"/>
<polygon fill="none" stroke="#000000" points="450.5,-282.5 450.5,-317.5 753.5,-317.5 753.5,-282.5 450.5,-282.5"/>
<text text-anchor="start" x="467.1934" y="-295.3" font-family="Arial Bold" font-size="18.00" fill="#000000">public.target_type</text>
<text text-anchor="start" x="609.2386" y="-295.3" font-family="Arial" font-size="14.00" fill="#000000">    </text>
<text text-anchor="start" x="643.4434" y="-295.3" font-family="Arial" font-size="14.00" fill="#666666">[BASE TABLE]</text>
<polygon fill="none" stroke="#000000" points="450.5,-252.5 450.5,-282.5 753.5,-282.5 753.5,-252.5 450.5,-252.5"/>
<text text-anchor="start" x="457.5" y="-263.9" font-family="Arial" font-size="14.00" fill="#000000">target_type_id    </text>
<text text-anchor="start" x="580.4046" y="-263.9" font-family="Arial" font-size="14.00" fill="#666666">[integer]</text>
<polygon fill="none" stroke="#000000" points="450.5,-222.5 450.5,-252.5 753.5,-252.5 753.5,-222.5 450.5,-222.5"/>
<text text-anchor="start" x="457.5" y="-233.9" font-family="Arial" font-size="14.00" fill="#000000">target_type_name    </text>
<text text-anchor="start" x="604.5238" y="-233.9" font-family="Arial" font-size="14.00" fill="#666666">[varchar]</text>
<polygon fill="none" stroke="#000000" points="450.5,-192.5 450.5,-222.5 753.5,-222.5 753.5,-192.5 450.5,-192.5"/>
<text text-anchor="start" x="457.5" y="-203.9" font-family="Arial" font-size="14.00" fill="#000000">target_type_description    </text>
<text text-anchor="start" x="637.1928" y="-203.9" font-family="Arial" font-size="14.00" fill="#666666">[varchar]</text>
<polygon fill="none" stroke="#000000" points="450.5,-162.5 450.5,-192.5 753.5,-192.5 753.5,-162.5 450.5,-162.5"/>
<text text-anchor="start" x="457.5" y="-173.9" font-family="Arial" font-size="14.00" fill="#000000">created_at    </text>
<text text-anchor="start" x="557.8422" y="-173.9" font-family="Arial" font-size="14.00" fill="#666666">[timestamp without time zone]</text>
<polygon fill="none" stroke="#000000" points="450.5,-132.5 450.5,-162.5 753.5,-162.5 753.5,-132.5 450.5,-132.5"/>
<text text-anchor="start" x="457.3065" y="-143.9" font-family="Arial" font-size="14.00" fill="#000000">updated_at    </text>
<text text-anchor="start" x="561.5533" y="-143.9" font-family="Arial" font-size="14.00" fill="#666666">[timestamp without time zone]</text>
</g>
<!-- public.target&#45;&gt;public.target_type -->
<g id="edge3" class="edge">
<title>public.target:target_type_id&#45;&gt;public.target_type:target_type_id</title>
<path fill="none" stroke="#000000" d="M1269.2966,-1957.4405C581.6026,-1949.365 1003.1075,-1120.7956 804.5,-451 780.4362,-369.8457 838.1468,-267.5 753.5,-267.5"/>
<polygon fill="#000000" stroke="#000000" points="1269.5002,-1957.4416 1279.4737,-1961.9999 1274.5001,-1957.4708 1279.5,-1957.5 1279.5,-1957.5 1279.5,-1957.5 1274.5001,-1957.4708 1279.5263,-1953.0001 1269.5002,-1957.4416 1269.5002,-1957.4416"/>
<text text-anchor="start" x="937.972" y="-1967.5" font-family="Arial" font-size="10.00" fill="#000000">FOREIGN KEY (target_type_id) REFERENCES target_type(target_type_id)</text>
</g>
<!-- public.input_catalog -->
<g id="node5" class="node">
<title>public.input_catalog</title>
<polygon fill="#efefef" stroke="transparent" points="857.5,-282.5 857.5,-317.5 1160.5,-317.5 1160.5,-282.5 857.5,-282.5"/>
<polygon fill="none" stroke="#000000" points="857.5,-282.5 857.5,-317.5 1160.5,-317.5 1160.5,-282.5 857.5,-282.5"/>
<text text-anchor="start" x="865.6902" y="-295.3" font-family="Arial Bold" font-size="18.00" fill="#000000">public.input_catalog</text>
<text text-anchor="start" x="1024.7418" y="-295.3" font-family="Arial" font-size="14.00" fill="#000000">    </text>
<text text-anchor="start" x="1058.9466" y="-295.3" font-family="Arial" font-size="14.00" fill="#666666">[BASE TABLE]</text>
<polygon fill="none" stroke="#000000" points="857.5,-252.5 857.5,-282.5 1160.5,-282.5 1160.5,-252.5 857.5,-252.5"/>
<text text-anchor="start" x="864.5" y="-263.9" font-family="Arial" font-size="14.00" fill="#000000">input_catalog_id    </text>
<text text-anchor="start" x="1000.6318" y="-263.9" font-family="Arial" font-size="14.00" fill="#666666">[integer]</text>
<polygon fill="none" stroke="#000000" points="857.5,-222.5 857.5,-252.5 1160.5,-252.5 1160.5,-222.5 857.5,-222.5"/>
<text text-anchor="start" x="864.5" y="-233.9" font-family="Arial" font-size="14.00" fill="#000000">input_catalog_name    </text>
<text text-anchor="start" x="1024.751" y="-233.9" font-family="Arial" font-size="14.00" fill="#666666">[varchar]</text>
<polygon fill="none" stroke="#000000" points="857.5,-192.5 857.5,-222.5 1160.5,-222.5 1160.5,-192.5 857.5,-192.5"/>
<text text-anchor="start" x="864.5" y="-203.9" font-family="Arial" font-size="14.00" fill="#000000">input_catalog_description    </text>
<text text-anchor="start" x="1057.42" y="-203.9" font-family="Arial" font-size="14.00" fill="#666666">[varchar]</text>
<polygon fill="none" stroke="#000000" points="857.5,-162.5 857.5,-192.5 1160.5,-192.5 1160.5,-162.5 857.5,-162.5"/>
<text text-anchor="start" x="864.5" y="-173.9" font-family="Arial" font-size="14.00" fill="#000000">created_at    </text>
<text text-anchor="start" x="964.8422" y="-173.9" font-family="Arial" font-size="14.00" fill="#666666">[timestamp without time zone]</text>
<polygon fill="none" stroke="#000000" points="857.5,-132.5 857.5,-162.5 1160.5,-162.5 1160.5,-132.5 857.5,-132.5"/>
<text text-anchor="start" x="864.3065" y="-143.9" font-family="Arial" font-size="14.00" fill="#000000">updated_at    </text>
<text text-anchor="start" x="968.5533" y="-143.9" font-family="Arial" font-size="14.00" fill="#666666">[timestamp without time zone]</text>
</g>
<!-- public.target&#45;&gt;public.input_catalog -->
<g id="edge4" class="edge">
<title>public.target:input_catalog_id&#45;&gt;public.input_catalog:input_catalog_id</title>
<path fill="none" stroke="#000000" d="M1270.8024,-1922.1313C1191.2439,-1819.0957 1249.889,-267.5 1160.5,-267.5"/>
<polygon fill="#000000" stroke="#000000" points="1270.9905,-1922.2474 1277.1363,-1931.3293 1275.2453,-1924.8737 1279.5,-1927.5 1279.5,-1927.5 1279.5,-1927.5 1275.2453,-1924.8737 1281.8637,-1923.6707 1270.9905,-1922.2474 1270.9905,-1922.2474"/>
<text text-anchor="start" x="909.8" y="-1937.5" font-family="Arial" font-size="10.00" fill="#000000">FOREIGN KEY (input_catalog_id) REFERENCES input_catalog(input_catalog_id)</text>
</g>
<!-- public.filter_name -->
<g id="node6" class="node">
<title>public.filter_name</title>
<polygon fill="#efefef" stroke="transparent" points="1264.5,-267.5 1264.5,-302.5 1567.5,-302.5 1567.5,-267.5 1264.5,-267.5"/>
<polygon fill="none" stroke="#000000" points="1264.5,-267.5 1264.5,-302.5 1567.5,-302.5 1567.5,-267.5 1264.5,-267.5"/>
<text text-anchor="start" x="1281.7073" y="-280.3" font-family="Arial Bold" font-size="18.00" fill="#000000">public.filter_name</text>
<text text-anchor="start" x="1422.7247" y="-280.3" font-family="Arial" font-size="14.00" fill="#000000">    </text>
<text text-anchor="start" x="1456.9295" y="-280.3" font-family="Arial" font-size="14.00" fill="#666666">[BASE TABLE]</text>
<polygon fill="none" stroke="#000000" points="1264.5,-237.5 1264.5,-267.5 1567.5,-267.5 1567.5,-237.5 1264.5,-237.5"/>
<text text-anchor="start" x="1271.5" y="-248.9" font-family="Arial" font-size="14.00" fill="#000000">filter_name    </text>
<text text-anchor="start" x="1374.9334" y="-248.9" font-family="Arial" font-size="14.00" fill="#666666">[varchar]</text>
<polygon fill="none" stroke="#000000" points="1264.5,-207.5 1264.5,-237.5 1567.5,-237.5 1567.5,-207.5 1264.5,-207.5"/>
<text text-anchor="start" x="1271.5" y="-218.9" font-family="Arial" font-size="14.00" fill="#000000">filter_name_description    </text>
<text text-anchor="start" x="1450.3934" y="-218.9" font-family="Arial" font-size="14.00" fill="#666666">[varchar]</text>
<polygon fill="none" stroke="#000000" points="1264.5,-177.5 1264.5,-207.5 1567.5,-207.5 1567.5,-177.5 1264.5,-177.5"/>
<text text-anchor="start" x="1271.5" y="-188.9" font-family="Arial" font-size="14.00" fill="#000000">created_at    </text>
<text text-anchor="start" x="1371.8422" y="-188.9" font-family="Arial" font-size="14.00" fill="#666666">[timestamp without time zone]</text>
<polygon fill="none" stroke="#000000" points="1264.5,-147.5 1264.5,-177.5 1567.5,-177.5 1567.5,-147.5 1264.5,-147.5"/>
<text text-anchor="start" x="1271.3065" y="-158.9" font-family="Arial" font-size="14.00" fill="#000000">updated_at    </text>
<text text-anchor="start" x="1375.5533" y="-158.9" font-family="Arial" font-size="14.00" fill="#666666">[timestamp without time zone]</text>
</g>
<!-- public.target&#45;&gt;public.filter_name -->
<g id="edge5" class="edge">
<title>public.target:filter_g&#45;&gt;public.filter_name:filter_name</title>
<path fill="none" stroke="#000000" d="M1272.1747,-1080.2814C1231.6466,-998.6691 1220.6409,-252.5 1264.5,-252.5"/>
<polygon fill="#000000" stroke="#000000" points="1272.3772,-1080.481 1276.3414,-1090.7052 1275.9386,-1083.9905 1279.5,-1087.5 1279.5,-1087.5 1279.5,-1087.5 1275.9386,-1083.9905 1282.6586,-1084.2948 1272.3772,-1080.481 1272.3772,-1080.481"/>
<text text-anchor="start" x="985.889" y="-1097.5" font-family="Arial" font-size="10.00" fill="#000000">FOREIGN KEY (filter_g) REFERENCES filter_name(filter_name)</text>
</g>
<!-- public.target&#45;&gt;public.filter_name -->
<g id="edge6" class="edge">
<title>public.target:filter_r&#45;&gt;public.filter_name:filter_name</title>
<path fill="none" stroke="#000000" d="M1272.312,-1050.2948C1233.2852,-970.3751 1222.2599,-252.5 1264.5,-252.5"/>
<polygon fill="#000000" stroke="#000000" points="1272.4373,-1050.4205 1276.3142,-1060.6782 1275.9687,-1053.9602 1279.5,-1057.5 1279.5,-1057.5 1279.5,-1057.5 1275.9687,-1053.9602 1282.6858,-1054.3218 1272.4373,-1050.4205 1272.4373,-1050.4205"/>
<text text-anchor="start" x="988.004" y="-1067.5" font-family="Arial" font-size="10.00" fill="#000000">FOREIGN KEY (filter_r) REFERENCES filter_name(filter_name)</text>
</g>
<!-- public.target&#45;&gt;public.filter_name -->
<g id="edge7" class="edge">
<title>public.target:filter_i&#45;&gt;public.filter_name:filter_name</title>
<path fill="none" stroke="#000000" d="M1272.4581,-1020.3227C1234.9234,-942.1934 1223.8755,-252.5 1264.5,-252.5"/>
<polygon fill="#000000" stroke="#000000" points="1272.4966,-1020.3619 1276.2878,-1030.6515 1275.9983,-1023.9309 1279.5,-1027.5 1279.5,-1027.5 1279.5,-1027.5 1275.9983,-1023.9309 1282.7122,-1024.3485 1272.4966,-1020.3619 1272.4966,-1020.3619"/>
<text text-anchor="start" x="989.559" y="-1037.5" font-family="Arial" font-size="10.00" fill="#000000">FOREIGN KEY (filter_i) REFERENCES filter_name(filter_name)</text>
</g>
<!-- public.target&#45;&gt;public.filter_name -->
<g id="edge8" class="edge">
<title>public.target:filter_z&#45;&gt;public.filter_name:filter_name</title>
<path fill="none" stroke="#000000" d="M1269.6566,-993.8429C1195.6395,-937.64 1185.1013,-252.5 1264.5,-252.5"/>
<polygon fill="#000000" stroke="#000000" points="1270.126,-994.0173 1277.9328,-1001.7183 1274.813,-995.7586 1279.5,-997.5 1279.5,-997.5 1279.5,-997.5 1274.813,-995.7586 1281.0672,-993.2817 1270.126,-994.0173 1270.126,-994.0173"/>
<text text-anchor="start" x="986.1685" y="-1007.5" font-family="Arial" font-size="10.00" fill="#000000">FOREIGN KEY (filter_z) REFERENCES filter_name(filter_name)</text>
</g>
<!-- public.target&#45;&gt;public.filter_name -->
<g id="edge9" class="edge">
<title>public.target:filter_y&#45;&gt;public.filter_name:filter_name</title>
<path fill="none" stroke="#000000" d="M1270.0499,-963.9902C1198.9665,-910.0505 1188.2973,-252.5 1264.5,-252.5"/>
<polygon fill="#000000" stroke="#000000" points="1270.1257,-964.0183 1277.9332,-971.7184 1274.8128,-965.7591 1279.5,-967.5 1279.5,-967.5 1279.5,-967.5 1274.8128,-965.7591 1281.0668,-963.2816 1270.1257,-964.0183 1270.1257,-964.0183"/>
<text text-anchor="start" x="986.1685" y="-977.5" font-family="Arial" font-size="10.00" fill="#000000">FOREIGN KEY (filter_y) REFERENCES filter_name(filter_name)</text>
</g>
<!-- public.target&#45;&gt;public.filter_name -->
<g id="edge10" class="edge">
<title>public.target:filter_j&#45;&gt;public.filter_name:filter_name</title>
<path fill="none" stroke="#000000" d="M1270.0274,-933.8145C1202.2498,-879.8975 1191.6418,-252.5 1264.5,-252.5"/>
<polygon fill="#000000" stroke="#000000" points="1270.1805,-933.874 1277.8683,-941.6938 1274.8403,-935.687 1279.5,-937.5 1279.5,-937.5 1279.5,-937.5 1274.8403,-935.687 1281.1317,-933.3062 1270.1805,-933.874 1270.1805,-933.874"/>
<text text-anchor="start" x="989.559" y="-947.5" font-family="Arial" font-size="10.00" fill="#000000">FOREIGN KEY (filter_j) REFERENCES filter_name(filter_name)</text>
</g>
<!-- public.cluster -->
<g id="node2" class="node">
<title>public.cluster</title>
<polygon fill="#efefef" stroke="transparent" points="1264.5,-2762.5 1264.5,-2797.5 1567.5,-2797.5 1567.5,-2762.5 1264.5,-2762.5"/>
<polygon fill="none" stroke="#000000" points="1264.5,-2762.5 1264.5,-2797.5 1567.5,-2797.5 1567.5,-2762.5 1264.5,-2762.5"/>
<text text-anchor="start" x="1299.7109" y="-2775.3" font-family="Arial Bold" font-size="18.00" fill="#000000">public.cluster</text>
<text text-anchor="start" x="1404.7211" y="-2775.3" font-family="Arial" font-size="14.00" fill="#000000">    </text>
<text text-anchor="start" x="1438.9259" y="-2775.3" font-family="Arial" font-size="14.00" fill="#666666">[BASE TABLE]</text>
<polygon fill="none" stroke="#000000" points="1264.5,-2732.5 1264.5,-2762.5 1567.5,-2762.5 1567.5,-2732.5 1264.5,-2732.5"/>
<text text-anchor="start" x="1271.5" y="-2743.9" font-family="Arial" font-size="14.00" fill="#000000">cluster_id    </text>
<text text-anchor="start" x="1365.5996" y="-2743.9" font-family="Arial" font-size="14.00" fill="#666666">[bigint]</text>
<polygon fill="none" stroke="#000000" points="1264.5,-2702.5 1264.5,-2732.5 1567.5,-2732.5 1567.5,-2702.5 1264.5,-2702.5"/>
<text text-anchor="start" x="1271.5" y="-2713.9" font-family="Arial" font-size="14.00" fill="#000000">target_id    </text>
<text text-anchor="start" x="1360.1662" y="-2713.9" font-family="Arial" font-size="14.00" fill="#666666">[bigint]</text>
<polygon fill="none" stroke="#000000" points="1264.5,-2672.5 1264.5,-2702.5 1567.5,-2702.5 1567.5,-2672.5 1264.5,-2672.5"/>
<text text-anchor="start" x="1271.5" y="-2683.9" font-family="Arial" font-size="14.00" fill="#000000">n_targets    </text>
<text text-anchor="start" x="1364.0596" y="-2683.9" font-family="Arial" font-size="14.00" fill="#666666">[integer]</text>
<polygon fill="none" stroke="#000000" points="1264.5,-2642.5 1264.5,-2672.5 1567.5,-2672.5 1567.5,-2642.5 1264.5,-2642.5"/>
<text text-anchor="start" x="1271.5" y="-2653.9" font-family="Arial" font-size="14.00" fill="#000000">ra_cluster    </text>
<text text-anchor="start" x="1367.1536" y="-2653.9" font-family="Arial" font-size="14.00" fill="#666666">[double precision]</text>
<polygon fill="none" stroke="#000000" points="1264.5,-2612.5 1264.5,-2642.5 1567.5,-2642.5 1567.5,-2612.5 1264.5,-2612.5"/>
<text text-anchor="start" x="1271.5" y="-2623.9" font-family="Arial" font-size="14.00" fill="#000000">dec_cluster    </text>
<text text-anchor="start" x="1377.2756" y="-2623.9" font-family="Arial" font-size="14.00" fill="#666666">[double precision]</text>
<polygon fill="none" stroke="#000000" points="1264.5,-2582.5 1264.5,-2612.5 1567.5,-2612.5 1567.5,-2582.5 1264.5,-2582.5"/>
<text text-anchor="start" x="1271.5" y="-2593.9" font-family="Arial" font-size="14.00" fill="#000000">d_ra    </text>
<text text-anchor="start" x="1333.7132" y="-2593.9" font-family="Arial" font-size="14.00" fill="#666666">[double precision]</text>
<polygon fill="none" stroke="#000000" points="1264.5,-2552.5 1264.5,-2582.5 1567.5,-2582.5 1567.5,-2552.5 1264.5,-2552.5"/>
<text text-anchor="start" x="1271.5" y="-2563.9" font-family="Arial" font-size="14.00" fill="#000000">d_dec    </text>
<text text-anchor="start" x="1343.8352" y="-2563.9" font-family="Arial" font-size="14.00" fill="#666666">[double precision]</text>
<polygon fill="none" stroke="#000000" points="1264.5,-2522.5 1264.5,-2552.5 1567.5,-2552.5 1567.5,-2522.5 1264.5,-2522.5"/>
<text text-anchor="start" x="1271.5" y="-2533.9" font-family="Arial" font-size="14.00" fill="#000000">input_catalog_id    </text>
<text text-anchor="start" x="1407.6318" y="-2533.9" font-family="Arial" font-size="14.00" fill="#666666">[integer]</text>
<polygon fill="none" stroke="#000000" points="1264.5,-2492.5 1264.5,-2522.5 1567.5,-2522.5 1567.5,-2492.5 1264.5,-2492.5"/>
<text text-anchor="start" x="1271.5" y="-2503.9" font-family="Arial" font-size="14.00" fill="#000000">created_at    </text>
<text text-anchor="start" x="1371.8422" y="-2503.9" font-family="Arial" font-size="14.00" fill="#666666">[timestamp without time zone]</text>
<polygon fill="none" stroke="#000000" points="1264.5,-2462.5 1264.5,-2492.5 1567.5,-2492.5 1567.5,-2462.5 1264.5,-2462.5"/>
<text text-anchor="start" x="1271.3065" y="-2473.9" font-family="Arial" font-size="14.00" fill="#000000">updated_at    </text>
<text text-anchor="start" x="1375.5533" y="-2473.9" font-family="Arial" font-size="14.00" fill="#666666">[timestamp without time zone]</text>
</g>
<!-- public.cluster&#45;&gt;public.target -->
<g id="edge1" class="edge">
<title>public.cluster:target_id&#45;&gt;public.target:target_id</title>
<path fill="none" stroke="#000000" d="M1254.3374,-2717.084C1073.8722,-2702.1032 1091.7274,-2287.5 1279.5,-2287.5"/>
<polygon fill="#000000" stroke="#000000" points="1254.5084,-2717.0909 1264.3159,-2721.9962 1259.5042,-2717.2955 1264.5,-2717.5 1264.5,-2717.5 1264.5,-2717.5 1259.5042,-2717.2955 1264.6841,-2713.0038 1254.5084,-2717.0909 1254.5084,-2717.0909"/>
<text text-anchor="start" x="996.656" y="-2727.5" font-family="Arial" font-size="10.00" fill="#000000">FOREIGN KEY (target_id) REFERENCES target(target_id)</text>
</g>
</g>
</svg>
