<?xml version="1.0" encoding="UTF-8" standalone="no"?>
<!DOCTYPE svg PUBLIC "-//W3C//DTD SVG 1.1//EN"
 "http://www.w3.org/Graphics/SVG/1.1/DTD/svg11.dtd">
<!-- Generated by graphviz version 2.40.1 (20161225.0304)
 -->
<!-- Title: public.alembic_version Pages: 1 -->
<svg width="423pt" height="165pt"
 viewBox="0.00 0.00 423.00 165.00" xmlns="http://www.w3.org/2000/svg" xmlns:xlink="http://www.w3.org/1999/xlink">
<g id="graph0" class="graph" transform="scale(1 1) rotate(0) translate(4 161)">
<title>public.alembic_version</title>
<polygon fill="#ffffff" stroke="transparent" points="-4,4 -4,-161 419,-161 419,4 -4,4"/>
<!-- public.alembic_version -->
<g id="node1" class="node">
<title>public.alembic_version</title>
<polygon fill="#efefef" stroke="transparent" points="46.5,-75.5 46.5,-110.5 369.5,-110.5 369.5,-75.5 46.5,-75.5"/>
<polygon fill="none" stroke="#000000" points="46.5,-75.5 46.5,-110.5 369.5,-110.5 369.5,-75.5 46.5,-75.5"/>
<text text-anchor="start" x="53.2062" y="-88.3" font-family="Arial Bold" font-size="18.00" fill="#000000">public.alembic_version</text>
<text text-anchor="start" x="235.2258" y="-88.3" font-family="Arial" font-size="14.00" fill="#000000">    </text>
<text text-anchor="start" x="269.4306" y="-88.3" font-family="Arial" font-size="14.00" fill="#666666">[BASE TABLE]</text>
<polygon fill="none" stroke="#000000" points="46.5,-45.5 46.5,-75.5 369.5,-75.5 369.5,-45.5 46.5,-45.5"/>
<text text-anchor="start" x="53.5" y="-56.9" font-family="Arial" font-size="14.00" fill="#000000">version_num </text>
<text text-anchor="start" x="137.514" y="-56.9" font-family="Arial" font-size="14.00" fill="#666666">[varchar(32)]</text>
<polygon fill="none" stroke="#000000" stroke-width="3" points="44.5,-44.5 44.5,-112.5 370.5,-112.5 370.5,-44.5 44.5,-44.5"/>
</g>
</g>
</svg>
