<?xml version="1.0" encoding="UTF-8" standalone="no"?>
<!DOCTYPE svg PUBLIC "-//W3C//DTD SVG 1.1//EN"
 "http://www.w3.org/Graphics/SVG/1.1/DTD/svg11.dtd">
<!-- Generated by graphviz version 2.40.1 (20161225.0304)
 -->
<!-- Title: public.proposal_category Pages: 1 -->
<svg width="821pt" height="772pt"
 viewBox="0.00 0.00 820.50 772.00" xmlns="http://www.w3.org/2000/svg" xmlns:xlink="http://www.w3.org/1999/xlink">
<g id="graph0" class="graph" transform="scale(1 1) rotate(0) translate(4 768)">
<title>public.proposal_category</title>
<polygon fill="#ffffff" stroke="transparent" points="-4,4 -4,-768 816.5,-768 816.5,4 -4,4"/>
<!-- public.proposal_category -->
<g id="node1" class="node">
<title>public.proposal_category</title>
<polygon fill="#efefef" stroke="transparent" points="426,-195.5 426,-230.5 767,-230.5 767,-195.5 426,-195.5"/>
<polygon fill="none" stroke="#000000" points="426,-195.5 426,-230.5 767,-230.5 767,-195.5 426,-195.5"/>
<text text-anchor="start" x="432.69" y="-208.3" font-family="Arial Bold" font-size="18.00" fill="#000000">public.proposal_category</text>
<text text-anchor="start" x="632.742" y="-208.3" font-family="Arial" font-size="14.00" fill="#000000">    </text>
<text text-anchor="start" x="666.9468" y="-208.3" font-family="Arial" font-size="14.00" fill="#666666">[BASE TABLE]</text>
<polygon fill="none" stroke="#000000" points="426,-165.5 426,-195.5 767,-195.5 767,-165.5 426,-165.5"/>
<text text-anchor="start" x="433" y="-176.9" font-family="Arial" font-size="14.00" fill="#000000">proposal_category_id </text>
<text text-anchor="start" x="570.7068" y="-176.9" font-family="Arial" font-size="14.00" fill="#666666">[integer]</text>
<polygon fill="none" stroke="#000000" points="426,-135.5 426,-165.5 767,-165.5 767,-135.5 426,-135.5"/>
<text text-anchor="start" x="433" y="-146.9" font-family="Arial" font-size="14.00" fill="#000000">proposal_category_name </text>
<text text-anchor="start" x="594.826" y="-146.9" font-family="Arial" font-size="14.00" fill="#666666">[varchar]</text>
<polygon fill="none" stroke="#000000" points="426,-105.5 426,-135.5 767,-135.5 767,-105.5 426,-105.5"/>
<text text-anchor="start" x="433" y="-116.9" font-family="Arial" font-size="14.00" fill="#000000">proposal_category_description </text>
<text text-anchor="start" x="627.495" y="-116.9" font-family="Arial" font-size="14.00" fill="#666666">[varchar]</text>
<polygon fill="none" stroke="#000000" points="426,-75.5 426,-105.5 767,-105.5 767,-75.5 426,-75.5"/>
<text text-anchor="start" x="433" y="-86.9" font-family="Arial" font-size="14.00" fill="#000000">created_at </text>
<text text-anchor="start" x="503.028" y="-86.9" font-family="Arial" font-size="14.00" fill="#666666">[timestamp without time zone]</text>
<polygon fill="none" stroke="#000000" points="426,-45.5 426,-75.5 767,-75.5 767,-45.5 426,-45.5"/>
<text text-anchor="start" x="433" y="-56.9" font-family="Arial" font-size="14.00" fill="#000000">updated_at </text>
<text text-anchor="start" x="506.9326" y="-56.9" font-family="Arial" font-size="14.00" fill="#666666">[timestamp without time zone]</text>
<polygon fill="none" stroke="#000000" stroke-width="3" points="424,-44.5 424,-232.5 768,-232.5 768,-44.5 424,-44.5"/>
</g>
<!-- public.proposal -->
<g id="node2" class="node">
<title>public.proposal</title>
<polygon fill="#efefef" stroke="transparent" points="445,-685.5 445,-720.5 748,-720.5 748,-685.5 445,-685.5"/>
<polygon fill="none" stroke="#000000" points="445,-685.5 445,-720.5 748,-720.5 748,-685.5 445,-685.5"/>
<text text-anchor="start" x="472.2027" y="-698.3" font-family="Arial Bold" font-size="18.00" fill="#000000">public.proposal</text>
<text text-anchor="start" x="593.2293" y="-698.3" font-family="Arial" font-size="14.00" fill="#000000">    </text>
<text text-anchor="start" x="627.4341" y="-698.3" font-family="Arial" font-size="14.00" fill="#666666">[BASE TABLE]</text>
<polygon fill="none" stroke="#000000" points="445,-655.5 445,-685.5 748,-685.5 748,-655.5 445,-655.5"/>
<text text-anchor="start" x="452" y="-666.9" font-family="Arial" font-size="14.00" fill="#000000">proposal_id    </text>
<text text-anchor="start" x="558.5568" y="-666.9" font-family="Arial" font-size="14.00" fill="#666666">[varchar]</text>
<polygon fill="none" stroke="#000000" points="445,-625.5 445,-655.5 748,-655.5 748,-625.5 445,-625.5"/>
<text text-anchor="start" x="452" y="-636.9" font-family="Arial" font-size="14.00" fill="#000000">group_id    </text>
<text text-anchor="start" x="540.6676" y="-636.9" font-family="Arial" font-size="14.00" fill="#666666">[varchar]</text>
<polygon fill="none" stroke="#000000" points="445,-595.5 445,-625.5 748,-625.5 748,-595.5 445,-595.5"/>
<text text-anchor="start" x="452" y="-606.9" font-family="Arial" font-size="14.00" fill="#000000">pi_first_name    </text>
<text text-anchor="start" x="570.216" y="-606.9" font-family="Arial" font-size="14.00" fill="#666666">[varchar]</text>
<polygon fill="none" stroke="#000000" points="445,-565.5 445,-595.5 748,-595.5 748,-565.5 445,-565.5"/>
<text text-anchor="start" x="452" y="-576.9" font-family="Arial" font-size="14.00" fill="#000000">pi_last_name    </text>
<text text-anchor="start" x="569.4474" y="-576.9" font-family="Arial" font-size="14.00" fill="#666666">[varchar]</text>
<polygon fill="none" stroke="#000000" points="445,-535.5 445,-565.5 748,-565.5 748,-535.5 445,-535.5"/>
<text text-anchor="start" x="452" y="-546.9" font-family="Arial" font-size="14.00" fill="#000000">pi_middle_name    </text>
<text text-anchor="start" x="588.8892" y="-546.9" font-family="Arial" font-size="14.00" fill="#666666">[varchar]</text>
<polygon fill="none" stroke="#000000" points="445,-505.5 445,-535.5 748,-535.5 748,-505.5 445,-505.5"/>
<text text-anchor="start" x="452" y="-516.9" font-family="Arial" font-size="14.00" fill="#000000">rank    </text>
<text text-anchor="start" x="513.4306" y="-516.9" font-family="Arial" font-size="14.00" fill="#666666">[double precision]</text>
<polygon fill="none" stroke="#000000" points="445,-475.5 445,-505.5 748,-505.5 748,-475.5 445,-475.5"/>
<text text-anchor="start" x="452" y="-486.9" font-family="Arial" font-size="14.00" fill="#000000">grade    </text>
<text text-anchor="start" x="521.9958" y="-486.9" font-family="Arial" font-size="14.00" fill="#666666">[varchar]</text>
<polygon fill="none" stroke="#000000" points="445,-445.5 445,-475.5 748,-475.5 748,-445.5 445,-445.5"/>
<text text-anchor="start" x="452" y="-456.9" font-family="Arial" font-size="14.00" fill="#000000">allocated_time    </text>
<text text-anchor="start" x="576.4446" y="-456.9" font-family="Arial" font-size="14.00" fill="#666666">[double precision]</text>
<polygon fill="none" stroke="#000000" points="445,-415.5 445,-445.5 748,-445.5 748,-415.5 445,-415.5"/>
<text text-anchor="start" x="452" y="-426.9" font-family="Arial" font-size="14.00" fill="#000000">proposal_category_id    </text>
<text text-anchor="start" x="620.021" y="-426.9" font-family="Arial" font-size="14.00" fill="#666666">[integer]</text>
<polygon fill="none" stroke="#000000" points="445,-385.5 445,-415.5 748,-415.5 748,-385.5 445,-385.5"/>
<text text-anchor="start" x="452" y="-396.9" font-family="Arial" font-size="14.00" fill="#000000">created_at    </text>
<text text-anchor="start" x="552.3422" y="-396.9" font-family="Arial" font-size="14.00" fill="#666666">[timestamp without time zone]</text>
<polygon fill="none" stroke="#000000" points="445,-355.5 445,-385.5 748,-385.5 748,-355.5 445,-355.5"/>
<text text-anchor="start" x="451.8065" y="-366.9" font-family="Arial" font-size="14.00" fill="#000000">updated_at    </text>
<text text-anchor="start" x="556.0533" y="-366.9" font-family="Arial" font-size="14.00" fill="#666666">[timestamp without time zone]</text>
</g>
<!-- public.proposal&#45;&gt;public.proposal_category -->
<g id="edge1" class="edge">
<title>public.proposal:proposal_category_id&#45;&gt;public.proposal_category:proposal_category_id</title>
<path fill="none" stroke="#000000" d="M435.292,-427.8615C387.2574,-401.143 373.6576,-180.5 426,-180.5"/>
<polygon fill="#000000" stroke="#000000" points="435.35,-427.8772 443.8198,-434.8425 440.175,-429.1886 445,-430.5 445,-430.5 445,-430.5 440.175,-429.1886 446.1802,-426.1575 435.35,-427.8772 435.35,-427.8772"/>
<text text-anchor="start" x="7.133" y="-440.5" font-family="Arial" font-size="10.00" fill="#000000">FOREIGN KEY (proposal_category_id) REFERENCES proposal_category(proposal_category_id)</text>
</g>
</g>
</svg>
