<?xml version="1.0" encoding="UTF-8" standalone="no"?>
<!DOCTYPE svg PUBLIC "-//W3C//DTD SVG 1.1//EN"
 "http://www.w3.org/Graphics/SVG/1.1/DTD/svg11.dtd">
<!-- Generated by graphviz version 2.40.1 (20161225.0304)
 -->
<!-- Title: public.cluster Pages: 1 -->
<svg width="933pt" height="2362pt"
 viewBox="0.00 0.00 933.00 2362.00" xmlns="http://www.w3.org/2000/svg" xmlns:xlink="http://www.w3.org/1999/xlink">
<g id="graph0" class="graph" transform="scale(1 1) rotate(0) translate(4 2358)">
<title>public.cluster</title>
<polygon fill="#ffffff" stroke="transparent" points="-4,4 -4,-2358 929,-2358 929,4 -4,4"/>
<!-- public.cluster -->
<g id="node1" class="node">
<title>public.cluster</title>
<polygon fill="#efefef" stroke="transparent" points="275,-2272.5 275,-2307.5 548,-2307.5 548,-2272.5 275,-2272.5"/>
<polygon fill="none" stroke="#000000" points="275,-2272.5 275,-2307.5 548,-2307.5 548,-2272.5 275,-2272.5"/>
<text text-anchor="start" x="295.2109" y="-2285.3" font-family="Arial Bold" font-size="18.00" fill="#000000">public.cluster</text>
<text text-anchor="start" x="400.2211" y="-2285.3" font-family="Arial" font-size="14.00" fill="#000000">    </text>
<text text-anchor="start" x="434.4259" y="-2285.3" font-family="Arial" font-size="14.00" fill="#666666">[BASE TABLE]</text>
<polygon fill="none" stroke="#000000" points="275,-2242.5 275,-2272.5 548,-2272.5 548,-2242.5 275,-2242.5"/>
<text text-anchor="start" x="282" y="-2253.9" font-family="Arial" font-size="14.00" fill="#000000">cluster_id </text>
<text text-anchor="start" x="345.7854" y="-2253.9" font-family="Arial" font-size="14.00" fill="#666666">[bigint]</text>
<polygon fill="none" stroke="#000000" points="275,-2212.5 275,-2242.5 548,-2242.5 548,-2212.5 275,-2212.5"/>
<text text-anchor="start" x="282" y="-2223.9" font-family="Arial" font-size="14.00" fill="#000000">target_id </text>
<text text-anchor="start" x="340.352" y="-2223.9" font-family="Arial" font-size="14.00" fill="#666666">[bigint]</text>
<polygon fill="none" stroke="#000000" points="275,-2182.5 275,-2212.5 548,-2212.5 548,-2182.5 275,-2182.5"/>
<text text-anchor="start" x="282" y="-2193.9" font-family="Arial" font-size="14.00" fill="#000000">n_targets </text>
<text text-anchor="start" x="344.2454" y="-2193.9" font-family="Arial" font-size="14.00" fill="#666666">[integer]</text>
<polygon fill="none" stroke="#000000" points="275,-2152.5 275,-2182.5 548,-2182.5 548,-2152.5 275,-2152.5"/>
<text text-anchor="start" x="282" y="-2163.9" font-family="Arial" font-size="14.00" fill="#000000">ra_cluster </text>
<text text-anchor="start" x="347.3394" y="-2163.9" font-family="Arial" font-size="14.00" fill="#666666">[double precision]</text>
<polygon fill="none" stroke="#000000" points="275,-2122.5 275,-2152.5 548,-2152.5 548,-2122.5 275,-2122.5"/>
<text text-anchor="start" x="282" y="-2133.9" font-family="Arial" font-size="14.00" fill="#000000">dec_cluster </text>
<text text-anchor="start" x="357.4614" y="-2133.9" font-family="Arial" font-size="14.00" fill="#666666">[double precision]</text>
<polygon fill="none" stroke="#000000" points="275,-2092.5 275,-2122.5 548,-2122.5 548,-2092.5 275,-2092.5"/>
<text text-anchor="start" x="282" y="-2103.9" font-family="Arial" font-size="14.00" fill="#000000">d_ra </text>
<text text-anchor="start" x="313.899" y="-2103.9" font-family="Arial" font-size="14.00" fill="#666666">[double precision]</text>
<polygon fill="none" stroke="#000000" points="275,-2062.5 275,-2092.5 548,-2092.5 548,-2062.5 275,-2062.5"/>
<text text-anchor="start" x="282" y="-2073.9" font-family="Arial" font-size="14.00" fill="#000000">d_dec </text>
<text text-anchor="start" x="324.021" y="-2073.9" font-family="Arial" font-size="14.00" fill="#666666">[double precision]</text>
<polygon fill="none" stroke="#000000" points="275,-2032.5 275,-2062.5 548,-2062.5 548,-2032.5 275,-2032.5"/>
<text text-anchor="start" x="282" y="-2043.9" font-family="Arial" font-size="14.00" fill="#000000">input_catalog_id </text>
<text text-anchor="start" x="387.8176" y="-2043.9" font-family="Arial" font-size="14.00" fill="#666666">[integer]</text>
<polygon fill="none" stroke="#000000" points="275,-2002.5 275,-2032.5 548,-2032.5 548,-2002.5 275,-2002.5"/>
<text text-anchor="start" x="282" y="-2013.9" font-family="Arial" font-size="14.00" fill="#000000">created_at </text>
<text text-anchor="start" x="352.028" y="-2013.9" font-family="Arial" font-size="14.00" fill="#666666">[timestamp without time zone]</text>
<polygon fill="none" stroke="#000000" points="275,-1972.5 275,-2002.5 548,-2002.5 548,-1972.5 275,-1972.5"/>
<text text-anchor="start" x="281.9636" y="-1983.9" font-family="Arial" font-size="14.00" fill="#000000">updated_at </text>
<text text-anchor="start" x="355.8962" y="-1983.9" font-family="Arial" font-size="14.00" fill="#666666">[timestamp without time zone]</text>
<polygon fill="none" stroke="#000000" stroke-width="3" points="273,-1971.5 273,-2309.5 549,-2309.5 549,-1971.5 273,-1971.5"/>
</g>
<!-- public.target -->
<g id="node2" class="node">
<title>public.target</title>
<polygon fill="#efefef" stroke="transparent" points="57,-1812.5 57,-1847.5 360,-1847.5 360,-1812.5 57,-1812.5"/>
<polygon fill="none" stroke="#000000" points="57,-1812.5 57,-1847.5 360,-1847.5 360,-1812.5 57,-1812.5"/>
<text text-anchor="start" x="95.7038" y="-1825.3" font-family="Arial Bold" font-size="18.00" fill="#000000">public.target</text>
<text text-anchor="start" x="193.7282" y="-1825.3" font-family="Arial" font-size="14.00" fill="#000000">    </text>
<text text-anchor="start" x="227.933" y="-1825.3" font-family="Arial" font-size="14.00" fill="#666666">[BASE TABLE]</text>
<polygon fill="none" stroke="#000000" points="57,-1782.5 57,-1812.5 360,-1812.5 360,-1782.5 57,-1782.5"/>
<text text-anchor="start" x="64" y="-1793.9" font-family="Arial" font-size="14.00" fill="#000000">target_id    </text>
<text text-anchor="start" x="152.6662" y="-1793.9" font-family="Arial" font-size="14.00" fill="#666666">[bigint]</text>
<polygon fill="none" stroke="#000000" points="57,-1752.5 57,-1782.5 360,-1782.5 360,-1752.5 57,-1752.5"/>
<text text-anchor="start" x="64" y="-1763.9" font-family="Arial" font-size="14.00" fill="#000000">proposal_id    </text>
<text text-anchor="start" x="170.5568" y="-1763.9" font-family="Arial" font-size="14.00" fill="#666666">[varchar]</text>
<polygon fill="none" stroke="#000000" points="57,-1722.5 57,-1752.5 360,-1752.5 360,-1722.5 57,-1722.5"/>
<text text-anchor="start" x="64" y="-1733.9" font-family="Arial" font-size="14.00" fill="#000000">obj_id    </text>
<text text-anchor="start" x="135.5484" y="-1733.9" font-family="Arial" font-size="14.00" fill="#666666">[bigint]</text>
<polygon fill="none" stroke="#000000" points="57,-1692.5 57,-1722.5 360,-1722.5 360,-1692.5 57,-1692.5"/>
<text text-anchor="start" x="64" y="-1703.9" font-family="Arial" font-size="14.00" fill="#000000">ra    </text>
<text text-anchor="start" x="110.648" y="-1703.9" font-family="Arial" font-size="14.00" fill="#666666">[double precision]</text>
<polygon fill="none" stroke="#000000" points="57,-1662.5 57,-1692.5 360,-1692.5 360,-1662.5 57,-1662.5"/>
<text text-anchor="start" x="64" y="-1673.9" font-family="Arial" font-size="14.00" fill="#000000">dec    </text>
<text text-anchor="start" x="120.77" y="-1673.9" font-family="Arial" font-size="14.00" fill="#666666">[double precision]</text>
<polygon fill="none" stroke="#000000" points="57,-1632.5 57,-1662.5 360,-1662.5 360,-1632.5 57,-1632.5"/>
<text text-anchor="start" x="64" y="-1643.9" font-family="Arial" font-size="14.00" fill="#000000">epoch    </text>
<text text-anchor="start" x="136.3352" y="-1643.9" font-family="Arial" font-size="14.00" fill="#666666">[varchar]</text>
<polygon fill="none" stroke="#000000" points="57,-1602.5 57,-1632.5 360,-1632.5 360,-1602.5 57,-1602.5"/>
<text text-anchor="start" x="64" y="-1613.9" font-family="Arial" font-size="14.00" fill="#000000">parallax    </text>
<text text-anchor="start" x="147.209" y="-1613.9" font-family="Arial" font-size="14.00" fill="#666666">[double precision]</text>
<polygon fill="none" stroke="#000000" points="57,-1572.5 57,-1602.5 360,-1602.5 360,-1572.5 57,-1572.5"/>
<text text-anchor="start" x="64" y="-1583.9" font-family="Arial" font-size="14.00" fill="#000000">pmra    </text>
<text text-anchor="start" x="130.0912" y="-1583.9" font-family="Arial" font-size="14.00" fill="#666666">[double precision]</text>
<polygon fill="none" stroke="#000000" points="57,-1542.5 57,-1572.5 360,-1572.5 360,-1542.5 57,-1542.5"/>
<text text-anchor="start" x="64" y="-1553.9" font-family="Arial" font-size="14.00" fill="#000000">pmdec    </text>
<text text-anchor="start" x="140.2132" y="-1553.9" font-family="Arial" font-size="14.00" fill="#666666">[double precision]</text>
<polygon fill="none" stroke="#000000" points="57,-1512.5 57,-1542.5 360,-1542.5 360,-1512.5 57,-1512.5"/>
<text text-anchor="start" x="64" y="-1523.9" font-family="Arial" font-size="14.00" fill="#000000">tract    </text>
<text text-anchor="start" x="125.4292" y="-1523.9" font-family="Arial" font-size="14.00" fill="#666666">[integer]</text>
<polygon fill="none" stroke="#000000" points="57,-1482.5 57,-1512.5 360,-1512.5 360,-1482.5 57,-1482.5"/>
<text text-anchor="start" x="64" y="-1493.9" font-family="Arial" font-size="14.00" fill="#000000">patch    </text>
<text text-anchor="start" x="132.4432" y="-1493.9" font-family="Arial" font-size="14.00" fill="#666666">[integer]</text>
<polygon fill="none" stroke="#000000" points="57,-1452.5 57,-1482.5 360,-1482.5 360,-1452.5 57,-1452.5"/>
<text text-anchor="start" x="64" y="-1463.9" font-family="Arial" font-size="14.00" fill="#000000">target_type_id    </text>
<text text-anchor="start" x="186.9046" y="-1463.9" font-family="Arial" font-size="14.00" fill="#666666">[integer]</text>
<polygon fill="none" stroke="#000000" points="57,-1422.5 57,-1452.5 360,-1452.5 360,-1422.5 57,-1422.5"/>
<text text-anchor="start" x="64" y="-1433.9" font-family="Arial" font-size="14.00" fill="#000000">input_catalog_id    </text>
<text text-anchor="start" x="200.1318" y="-1433.9" font-family="Arial" font-size="14.00" fill="#666666">[integer]</text>
<polygon fill="none" stroke="#000000" points="57,-1392.5 57,-1422.5 360,-1422.5 360,-1392.5 57,-1392.5"/>
<text text-anchor="start" x="64" y="-1403.9" font-family="Arial" font-size="14.00" fill="#000000">fiber_mag_g    </text>
<text text-anchor="start" x="176.0014" y="-1403.9" font-family="Arial" font-size="14.00" fill="#666666">[double precision]</text>
<polygon fill="none" stroke="#000000" points="57,-1362.5 57,-1392.5 360,-1392.5 360,-1362.5 57,-1362.5"/>
<text text-anchor="start" x="64" y="-1373.9" font-family="Arial" font-size="14.00" fill="#000000">fiber_mag_r    </text>
<text text-anchor="start" x="172.8794" y="-1373.9" font-family="Arial" font-size="14.00" fill="#666666">[double precision]</text>
<polygon fill="none" stroke="#000000" points="57,-1332.5 57,-1362.5 360,-1362.5 360,-1332.5 57,-1332.5"/>
<text text-anchor="start" x="64" y="-1343.9" font-family="Arial" font-size="14.00" fill="#000000">fiber_mag_i    </text>
<text text-anchor="start" x="171.3254" y="-1343.9" font-family="Arial" font-size="14.00" fill="#666666">[double precision]</text>
<polygon fill="none" stroke="#000000" points="57,-1302.5 57,-1332.5 360,-1332.5 360,-1302.5 57,-1302.5"/>
<text text-anchor="start" x="64" y="-1313.9" font-family="Arial" font-size="14.00" fill="#000000">fiber_mag_z    </text>
<text text-anchor="start" x="175.2188" y="-1313.9" font-family="Arial" font-size="14.00" fill="#666666">[double precision]</text>
<polygon fill="none" stroke="#000000" points="57,-1272.5 57,-1302.5 360,-1302.5 360,-1272.5 57,-1272.5"/>
<text text-anchor="start" x="64" y="-1283.9" font-family="Arial" font-size="14.00" fill="#000000">fiber_mag_y    </text>
<text text-anchor="start" x="175.2188" y="-1283.9" font-family="Arial" font-size="14.00" fill="#666666">[double precision]</text>
<polygon fill="none" stroke="#000000" points="57,-1242.5 57,-1272.5 360,-1272.5 360,-1242.5 57,-1242.5"/>
<text text-anchor="start" x="64" y="-1253.9" font-family="Arial" font-size="14.00" fill="#000000">fiber_mag_j    </text>
<text text-anchor="start" x="171.3254" y="-1253.9" font-family="Arial" font-size="14.00" fill="#666666">[double precision]</text>
<polygon fill="none" stroke="#000000" points="57,-1212.5 57,-1242.5 360,-1242.5 360,-1212.5 57,-1212.5"/>
<text text-anchor="start" x="64" y="-1223.9" font-family="Arial" font-size="14.00" fill="#000000">psf_mag_g    </text>
<text text-anchor="start" x="167.4516" y="-1223.9" font-family="Arial" font-size="14.00" fill="#666666">[double precision]</text>
<polygon fill="none" stroke="#000000" points="57,-1182.5 57,-1212.5 360,-1212.5 360,-1182.5 57,-1182.5"/>
<text text-anchor="start" x="64" y="-1193.9" font-family="Arial" font-size="14.00" fill="#000000">psf_mag_r    </text>
<text text-anchor="start" x="164.3296" y="-1193.9" font-family="Arial" font-size="14.00" fill="#666666">[double precision]</text>
<polygon fill="none" stroke="#000000" points="57,-1152.5 57,-1182.5 360,-1182.5 360,-1152.5 57,-1152.5"/>
<text text-anchor="start" x="64" y="-1163.9" font-family="Arial" font-size="14.00" fill="#000000">psf_mag_i    </text>
<text text-anchor="start" x="162.7756" y="-1163.9" font-family="Arial" font-size="14.00" fill="#666666">[double precision]</text>
<polygon fill="none" stroke="#000000" points="57,-1122.5 57,-1152.5 360,-1152.5 360,-1122.5 57,-1122.5"/>
<text text-anchor="start" x="64" y="-1133.9" font-family="Arial" font-size="14.00" fill="#000000">psf_mag_z    </text>
<text text-anchor="start" x="166.669" y="-1133.9" font-family="Arial" font-size="14.00" fill="#666666">[double precision]</text>
<polygon fill="none" stroke="#000000" points="57,-1092.5 57,-1122.5 360,-1122.5 360,-1092.5 57,-1092.5"/>
<text text-anchor="start" x="64" y="-1103.9" font-family="Arial" font-size="14.00" fill="#000000">psf_mag_y    </text>
<text text-anchor="start" x="166.669" y="-1103.9" font-family="Arial" font-size="14.00" fill="#666666">[double precision]</text>
<polygon fill="none" stroke="#000000" points="57,-1062.5 57,-1092.5 360,-1092.5 360,-1062.5 57,-1062.5"/>
<text text-anchor="start" x="64" y="-1073.9" font-family="Arial" font-size="14.00" fill="#000000">psf_mag_j    </text>
<text text-anchor="start" x="162.7756" y="-1073.9" font-family="Arial" font-size="14.00" fill="#666666">[double precision]</text>
<polygon fill="none" stroke="#000000" points="57,-1032.5 57,-1062.5 360,-1062.5 360,-1032.5 57,-1032.5"/>
<text text-anchor="start" x="64" y="-1043.9" font-family="Arial" font-size="14.00" fill="#000000">psf_flux_g    </text>
<text text-anchor="start" x="162.0056" y="-1043.9" font-family="Arial" font-size="14.00" fill="#666666">[double precision]</text>
<polygon fill="none" stroke="#000000" points="57,-1002.5 57,-1032.5 360,-1032.5 360,-1002.5 57,-1002.5"/>
<text text-anchor="start" x="64" y="-1013.9" font-family="Arial" font-size="14.00" fill="#000000">psf_flux_r    </text>
<text text-anchor="start" x="158.8836" y="-1013.9" font-family="Arial" font-size="14.00" fill="#666666">[double precision]</text>
<polygon fill="none" stroke="#000000" points="57,-972.5 57,-1002.5 360,-1002.5 360,-972.5 57,-972.5"/>
<text text-anchor="start" x="64" y="-983.9" font-family="Arial" font-size="14.00" fill="#000000">psf_flux_i    </text>
<text text-anchor="start" x="157.3296" y="-983.9" font-family="Arial" font-size="14.00" fill="#666666">[double precision]</text>
<polygon fill="none" stroke="#000000" points="57,-942.5 57,-972.5 360,-972.5 360,-942.5 57,-942.5"/>
<text text-anchor="start" x="64" y="-953.9" font-family="Arial" font-size="14.00" fill="#000000">psf_flux_z    </text>
<text text-anchor="start" x="161.223" y="-953.9" font-family="Arial" font-size="14.00" fill="#666666">[double precision]</text>
<polygon fill="none" stroke="#000000" points="57,-912.5 57,-942.5 360,-942.5 360,-912.5 57,-912.5"/>
<text text-anchor="start" x="64" y="-923.9" font-family="Arial" font-size="14.00" fill="#000000">psf_flux_y    </text>
<text text-anchor="start" x="161.223" y="-923.9" font-family="Arial" font-size="14.00" fill="#666666">[double precision]</text>
<polygon fill="none" stroke="#000000" points="57,-882.5 57,-912.5 360,-912.5 360,-882.5 57,-882.5"/>
<text text-anchor="start" x="64" y="-893.9" font-family="Arial" font-size="14.00" fill="#000000">psf_flux_j    </text>
<text text-anchor="start" x="157.3296" y="-893.9" font-family="Arial" font-size="14.00" fill="#666666">[double precision]</text>
<polygon fill="none" stroke="#000000" points="57,-852.5 57,-882.5 360,-882.5 360,-852.5 57,-852.5"/>
<text text-anchor="start" x="64" y="-863.9" font-family="Arial" font-size="14.00" fill="#000000">priority    </text>
<text text-anchor="start" x="140.195" y="-863.9" font-family="Arial" font-size="14.00" fill="#666666">[double precision]</text>
<polygon fill="none" stroke="#000000" points="57,-822.5 57,-852.5 360,-852.5 360,-822.5 57,-822.5"/>
<text text-anchor="start" x="64" y="-833.9" font-family="Arial" font-size="14.00" fill="#000000">effective_exptime    </text>
<text text-anchor="start" x="207.1192" y="-833.9" font-family="Arial" font-size="14.00" fill="#666666">[double precision]</text>
<polygon fill="none" stroke="#000000" points="57,-792.5 57,-822.5 360,-822.5 360,-792.5 57,-792.5"/>
<text text-anchor="start" x="64" y="-803.9" font-family="Arial" font-size="14.00" fill="#000000">is_medium_resolution    </text>
<text text-anchor="start" x="234.3296" y="-803.9" font-family="Arial" font-size="14.00" fill="#666666">[boolean]</text>
<polygon fill="none" stroke="#000000" points="57,-762.5 57,-792.5 360,-792.5 360,-762.5 57,-762.5"/>
<text text-anchor="start" x="64" y="-773.9" font-family="Arial" font-size="14.00" fill="#000000">qa_relative_throughput    </text>
<text text-anchor="start" x="241.3674" y="-773.9" font-family="Arial" font-size="14.00" fill="#666666">[double precision]</text>
<polygon fill="none" stroke="#000000" points="57,-732.5 57,-762.5 360,-762.5 360,-732.5 57,-732.5"/>
<text text-anchor="start" x="64" y="-743.9" font-family="Arial" font-size="14.00" fill="#000000">qa_relative_noise    </text>
<text text-anchor="start" x="207.9018" y="-743.9" font-family="Arial" font-size="14.00" fill="#666666">[double precision]</text>
<polygon fill="none" stroke="#000000" points="57,-702.5 57,-732.5 360,-732.5 360,-702.5 57,-702.5"/>
<text text-anchor="start" x="64" y="-713.9" font-family="Arial" font-size="14.00" fill="#000000">qa_reference_lambda    </text>
<text text-anchor="start" x="234.3576" y="-713.9" font-family="Arial" font-size="14.00" fill="#666666">[double precision]</text>
<polygon fill="none" stroke="#000000" points="57,-672.5 57,-702.5 360,-702.5 360,-672.5 57,-672.5"/>
<text text-anchor="start" x="64" y="-683.9" font-family="Arial" font-size="14.00" fill="#000000">is_cluster    </text>
<text text-anchor="start" x="157.317" y="-683.9" font-family="Arial" font-size="14.00" fill="#666666">[boolean]</text>
<polygon fill="none" stroke="#000000" points="57,-642.5 57,-672.5 360,-672.5 360,-642.5 57,-642.5"/>
<text text-anchor="start" x="64" y="-653.9" font-family="Arial" font-size="14.00" fill="#000000">created_at    </text>
<text text-anchor="start" x="164.3422" y="-653.9" font-family="Arial" font-size="14.00" fill="#666666">[timestamp without time zone]</text>
<polygon fill="none" stroke="#000000" points="57,-612.5 57,-642.5 360,-642.5 360,-612.5 57,-612.5"/>
<text text-anchor="start" x="63.8065" y="-623.9" font-family="Arial" font-size="14.00" fill="#000000">updated_at    </text>
<text text-anchor="start" x="168.0533" y="-623.9" font-family="Arial" font-size="14.00" fill="#666666">[timestamp without time zone]</text>
<polygon fill="none" stroke="#000000" points="57,-582.5 57,-612.5 360,-612.5 360,-582.5 57,-582.5"/>
<text text-anchor="start" x="64" y="-593.9" font-family="Arial" font-size="14.00" fill="#000000">filter_g    </text>
<text text-anchor="start" x="140.2076" y="-593.9" font-family="Arial" font-size="14.00" fill="#666666">[varchar]</text>
<polygon fill="none" stroke="#000000" points="57,-552.5 57,-582.5 360,-582.5 360,-552.5 57,-552.5"/>
<text text-anchor="start" x="64" y="-563.9" font-family="Arial" font-size="14.00" fill="#000000">filter_r    </text>
<text text-anchor="start" x="137.0856" y="-563.9" font-family="Arial" font-size="14.00" fill="#666666">[varchar]</text>
<polygon fill="none" stroke="#000000" points="57,-522.5 57,-552.5 360,-552.5 360,-522.5 57,-522.5"/>
<text text-anchor="start" x="64" y="-533.9" font-family="Arial" font-size="14.00" fill="#000000">filter_i    </text>
<text text-anchor="start" x="135.5316" y="-533.9" font-family="Arial" font-size="14.00" fill="#666666">[varchar]</text>
<polygon fill="none" stroke="#000000" points="57,-492.5 57,-522.5 360,-522.5 360,-492.5 57,-492.5"/>
<text text-anchor="start" x="64" y="-503.9" font-family="Arial" font-size="14.00" fill="#000000">filter_z    </text>
<text text-anchor="start" x="139.425" y="-503.9" font-family="Arial" font-size="14.00" fill="#666666">[varchar]</text>
<polygon fill="none" stroke="#000000" points="57,-462.5 57,-492.5 360,-492.5 360,-462.5 57,-462.5"/>
<text text-anchor="start" x="64" y="-473.9" font-family="Arial" font-size="14.00" fill="#000000">filter_y    </text>
<text text-anchor="start" x="139.425" y="-473.9" font-family="Arial" font-size="14.00" fill="#666666">[varchar]</text>
<polygon fill="none" stroke="#000000" points="57,-432.5 57,-462.5 360,-462.5 360,-432.5 57,-432.5"/>
<text text-anchor="start" x="64" y="-443.9" font-family="Arial" font-size="14.00" fill="#000000">filter_j    </text>
<text text-anchor="start" x="135.5316" y="-443.9" font-family="Arial" font-size="14.00" fill="#666666">[varchar]</text>
<polygon fill="none" stroke="#000000" points="57,-402.5 57,-432.5 360,-432.5 360,-402.5 57,-402.5"/>
<text text-anchor="start" x="64" y="-413.9" font-family="Arial" font-size="14.00" fill="#000000">psf_mag_error_g    </text>
<text text-anchor="start" x="204.7812" y="-413.9" font-family="Arial" font-size="14.00" fill="#666666">[double precision]</text>
<polygon fill="none" stroke="#000000" points="57,-372.5 57,-402.5 360,-402.5 360,-372.5 57,-372.5"/>
<text text-anchor="start" x="64" y="-383.9" font-family="Arial" font-size="14.00" fill="#000000">psf_mag_error_r    </text>
<text text-anchor="start" x="201.6592" y="-383.9" font-family="Arial" font-size="14.00" fill="#666666">[double precision]</text>
<polygon fill="none" stroke="#000000" points="57,-342.5 57,-372.5 360,-372.5 360,-342.5 57,-342.5"/>
<text text-anchor="start" x="64" y="-353.9" font-family="Arial" font-size="14.00" fill="#000000">psf_mag_error_i    </text>
<text text-anchor="start" x="200.1052" y="-353.9" font-family="Arial" font-size="14.00" fill="#666666">[double precision]</text>
<polygon fill="none" stroke="#000000" points="57,-312.5 57,-342.5 360,-342.5 360,-312.5 57,-312.5"/>
<text text-anchor="start" x="64" y="-323.9" font-family="Arial" font-size="14.00" fill="#000000">psf_mag_error_z    </text>
<text text-anchor="start" x="203.9986" y="-323.9" font-family="Arial" font-size="14.00" fill="#666666">[double precision]</text>
<polygon fill="none" stroke="#000000" points="57,-282.5 57,-312.5 360,-312.5 360,-282.5 57,-282.5"/>
<text text-anchor="start" x="64" y="-293.9" font-family="Arial" font-size="14.00" fill="#000000">psf_mag_error_y    </text>
<text text-anchor="start" x="203.9986" y="-293.9" font-family="Arial" font-size="14.00" fill="#666666">[double precision]</text>
<polygon fill="none" stroke="#000000" points="57,-252.5 57,-282.5 360,-282.5 360,-252.5 57,-252.5"/>
<text text-anchor="start" x="64" y="-263.9" font-family="Arial" font-size="14.00" fill="#000000">psf_mag_error_j    </text>
<text text-anchor="start" x="200.1052" y="-263.9" font-family="Arial" font-size="14.00" fill="#666666">[double precision]</text>
<polygon fill="none" stroke="#000000" points="57,-222.5 57,-252.5 360,-252.5 360,-222.5 57,-222.5"/>
<text text-anchor="start" x="64" y="-233.9" font-family="Arial" font-size="14.00" fill="#000000">psf_flux_error_g    </text>
<text text-anchor="start" x="199.3352" y="-233.9" font-family="Arial" font-size="14.00" fill="#666666">[double precision]</text>
<polygon fill="none" stroke="#000000" points="57,-192.5 57,-222.5 360,-222.5 360,-192.5 57,-192.5"/>
<text text-anchor="start" x="64" y="-203.9" font-family="Arial" font-size="14.00" fill="#000000">psf_flux_error_r    </text>
<text text-anchor="start" x="196.2132" y="-203.9" font-family="Arial" font-size="14.00" fill="#666666">[double precision]</text>
<polygon fill="none" stroke="#000000" points="57,-162.5 57,-192.5 360,-192.5 360,-162.5 57,-162.5"/>
<text text-anchor="start" x="64" y="-173.9" font-family="Arial" font-size="14.00" fill="#000000">psf_flux_error_i    </text>
<text text-anchor="start" x="194.6592" y="-173.9" font-family="Arial" font-size="14.00" fill="#666666">[double precision]</text>
<polygon fill="none" stroke="#000000" points="57,-132.5 57,-162.5 360,-162.5 360,-132.5 57,-132.5"/>
<text text-anchor="start" x="64" y="-143.9" font-family="Arial" font-size="14.00" fill="#000000">psf_flux_error_z    </text>
<text text-anchor="start" x="198.5526" y="-143.9" font-family="Arial" font-size="14.00" fill="#666666">[double precision]</text>
<polygon fill="none" stroke="#000000" points="57,-102.5 57,-132.5 360,-132.5 360,-102.5 57,-102.5"/>
<text text-anchor="start" x="64" y="-113.9" font-family="Arial" font-size="14.00" fill="#000000">psf_flux_error_y    </text>
<text text-anchor="start" x="198.5526" y="-113.9" font-family="Arial" font-size="14.00" fill="#666666">[double precision]</text>
<polygon fill="none" stroke="#000000" points="57,-72.5 57,-102.5 360,-102.5 360,-72.5 57,-72.5"/>
<text text-anchor="start" x="64" y="-83.9" font-family="Arial" font-size="14.00" fill="#000000">psf_flux_error_j    </text>
<text text-anchor="start" x="194.6592" y="-83.9" font-family="Arial" font-size="14.00" fill="#666666">[double precision]</text>
<polygon fill="none" stroke="#000000" points="57,-42.5 57,-72.5 360,-72.5 360,-42.5 57,-42.5"/>
<text text-anchor="start" x="64" y="-53.9" font-family="Arial" font-size="14.00" fill="#000000">ob_code    </text>
<text text-anchor="start" x="151.9004" y="-53.9" font-family="Arial" font-size="14.00" fill="#666666">[varchar]</text>
</g>
<!-- public.cluster&#45;&gt;public.target -->
<g id="edge1" class="edge">
<title>public.cluster:target_id&#45;&gt;public.target:target_id</title>
<path fill="none" stroke="#000000" d="M264.8355,-2227.1104C144.6075,-2217.5789 203.1859,-2035.4048 275,-1927 297.6577,-1892.7978 337.3423,-1925.2022 360,-1891 382.9499,-1856.3566 401.5556,-1797.5 360,-1797.5"/>
<polygon fill="#000000" stroke="#000000" points="265.0073,-2227.1169 274.8276,-2231.9967 270.0037,-2227.3084 275,-2227.5 275,-2227.5 275,-2227.5 270.0037,-2227.3084 275.1724,-2223.0033 265.0073,-2227.1169 265.0073,-2227.1169"/>
<text text-anchor="start" x="7.156" y="-2237.5" font-family="Arial" font-size="10.00" fill="#000000">FOREIGN KEY (target_id) REFERENCES target(target_id)</text>
</g>
<!-- public.input_catalog -->
<g id="node3" class="node">
<title>public.input_catalog</title>
<polygon fill="#efefef" stroke="transparent" points="464,-1002.5 464,-1037.5 767,-1037.5 767,-1002.5 464,-1002.5"/>
<polygon fill="none" stroke="#000000" points="464,-1002.5 464,-1037.5 767,-1037.5 767,-1002.5 464,-1002.5"/>
<text text-anchor="start" x="472.1902" y="-1015.3" font-family="Arial Bold" font-size="18.00" fill="#000000">public.input_catalog</text>
<text text-anchor="start" x="631.2418" y="-1015.3" font-family="Arial" font-size="14.00" fill="#000000">    </text>
<text text-anchor="start" x="665.4466" y="-1015.3" font-family="Arial" font-size="14.00" fill="#666666">[BASE TABLE]</text>
<polygon fill="none" stroke="#000000" points="464,-972.5 464,-1002.5 767,-1002.5 767,-972.5 464,-972.5"/>
<text text-anchor="start" x="471" y="-983.9" font-family="Arial" font-size="14.00" fill="#000000">input_catalog_id    </text>
<text text-anchor="start" x="607.1318" y="-983.9" font-family="Arial" font-size="14.00" fill="#666666">[integer]</text>
<polygon fill="none" stroke="#000000" points="464,-942.5 464,-972.5 767,-972.5 767,-942.5 464,-942.5"/>
<text text-anchor="start" x="471" y="-953.9" font-family="Arial" font-size="14.00" fill="#000000">input_catalog_name    </text>
<text text-anchor="start" x="631.251" y="-953.9" font-family="Arial" font-size="14.00" fill="#666666">[varchar]</text>
<polygon fill="none" stroke="#000000" points="464,-912.5 464,-942.5 767,-942.5 767,-912.5 464,-912.5"/>
<text text-anchor="start" x="471" y="-923.9" font-family="Arial" font-size="14.00" fill="#000000">input_catalog_description    </text>
<text text-anchor="start" x="663.92" y="-923.9" font-family="Arial" font-size="14.00" fill="#666666">[varchar]</text>
<polygon fill="none" stroke="#000000" points="464,-882.5 464,-912.5 767,-912.5 767,-882.5 464,-882.5"/>
<text text-anchor="start" x="471" y="-893.9" font-family="Arial" font-size="14.00" fill="#000000">created_at    </text>
<text text-anchor="start" x="571.3422" y="-893.9" font-family="Arial" font-size="14.00" fill="#666666">[timestamp without time zone]</text>
<polygon fill="none" stroke="#000000" points="464,-852.5 464,-882.5 767,-882.5 767,-852.5 464,-852.5"/>
<text text-anchor="start" x="470.8065" y="-863.9" font-family="Arial" font-size="14.00" fill="#000000">updated_at    </text>
<text text-anchor="start" x="575.0533" y="-863.9" font-family="Arial" font-size="14.00" fill="#666666">[timestamp without time zone]</text>
</g>
<!-- public.cluster&#45;&gt;public.input_catalog -->
<g id="edge2" class="edge">
<title>public.cluster:input_catalog_id&#45;&gt;public.input_catalog:input_catalog_id</title>
<path fill="none" stroke="#000000" d="M557.8185,-2044.4592C646.5568,-1982.2852 349.5451,-987.5 464,-987.5"/>
<polygon fill="#000000" stroke="#000000" points="557.5524,-2044.5416 546.6687,-2043.2014 552.7762,-2046.0208 548,-2047.5 548,-2047.5 548,-2047.5 552.7762,-2046.0208 549.3313,-2051.7986 557.5524,-2044.5416 557.5524,-2044.5416"/>
<text text-anchor="start" x="555.3" y="-2057.5" font-family="Arial" font-size="10.00" fill="#000000">FOREIGN KEY (input_catalog_id) REFERENCES input_catalog(input_catalog_id)</text>
</g>
</g>
</svg>
