<?xml version="1.0" encoding="UTF-8" standalone="no"?>
<!DOCTYPE svg PUBLIC "-//W3C//DTD SVG 1.1//EN"
 "http://www.w3.org/Graphics/SVG/1.1/DTD/svg11.dtd">
<!-- Generated by graphviz version 2.40.1 (20161225.0304)
 -->
<!-- Title: public.proposal Pages: 1 -->
<svg width="803pt" height="2699pt"
 viewBox="0.00 0.00 802.50 2699.00" xmlns="http://www.w3.org/2000/svg" xmlns:xlink="http://www.w3.org/1999/xlink">
<g id="graph0" class="graph" transform="scale(1 1) rotate(0) translate(4 2695)">
<title>public.proposal</title>
<polygon fill="#ffffff" stroke="transparent" points="-4,4 -4,-2695 798.5,-2695 798.5,4 -4,4"/>
<!-- public.proposal -->
<g id="node1" class="node">
<title>public.proposal</title>
<polygon fill="#efefef" stroke="transparent" points="445,-682.5 445,-717.5 718,-717.5 718,-682.5 445,-682.5"/>
<polygon fill="none" stroke="#000000" points="445,-682.5 445,-717.5 718,-717.5 718,-682.5 445,-682.5"/>
<text text-anchor="start" x="457.2027" y="-695.3" font-family="Arial Bold" font-size="18.00" fill="#000000">public.proposal</text>
<text text-anchor="start" x="578.2293" y="-695.3" font-family="Arial" font-size="14.00" fill="#000000">    </text>
<text text-anchor="start" x="612.4341" y="-695.3" font-family="Arial" font-size="14.00" fill="#666666">[BASE TABLE]</text>
<polygon fill="none" stroke="#000000" points="445,-652.5 445,-682.5 718,-682.5 718,-652.5 445,-652.5"/>
<text text-anchor="start" x="452" y="-663.9" font-family="Arial" font-size="14.00" fill="#000000">proposal_id </text>
<text text-anchor="start" x="528.2426" y="-663.9" font-family="Arial" font-size="14.00" fill="#666666">[varchar]</text>
<polygon fill="none" stroke="#000000" points="445,-622.5 445,-652.5 718,-652.5 718,-622.5 445,-622.5"/>
<text text-anchor="start" x="452" y="-633.9" font-family="Arial" font-size="14.00" fill="#000000">group_id </text>
<text text-anchor="start" x="510.3534" y="-633.9" font-family="Arial" font-size="14.00" fill="#666666">[varchar]</text>
<polygon fill="none" stroke="#000000" points="445,-592.5 445,-622.5 718,-622.5 718,-592.5 445,-592.5"/>
<text text-anchor="start" x="452" y="-603.9" font-family="Arial" font-size="14.00" fill="#000000">pi_first_name </text>
<text text-anchor="start" x="539.9018" y="-603.9" font-family="Arial" font-size="14.00" fill="#666666">[varchar]</text>
<polygon fill="none" stroke="#000000" points="445,-562.5 445,-592.5 718,-592.5 718,-562.5 445,-562.5"/>
<text text-anchor="start" x="452" y="-573.9" font-family="Arial" font-size="14.00" fill="#000000">pi_last_name </text>
<text text-anchor="start" x="539.1332" y="-573.9" font-family="Arial" font-size="14.00" fill="#666666">[varchar]</text>
<polygon fill="none" stroke="#000000" points="445,-532.5 445,-562.5 718,-562.5 718,-532.5 445,-532.5"/>
<text text-anchor="start" x="452" y="-543.9" font-family="Arial" font-size="14.00" fill="#000000">pi_middle_name </text>
<text text-anchor="start" x="558.575" y="-543.9" font-family="Arial" font-size="14.00" fill="#666666">[varchar]</text>
<polygon fill="none" stroke="#000000" points="445,-502.5 445,-532.5 718,-532.5 718,-502.5 445,-502.5"/>
<text text-anchor="start" x="452" y="-513.9" font-family="Arial" font-size="14.00" fill="#000000">rank </text>
<text text-anchor="start" x="483.1164" y="-513.9" font-family="Arial" font-size="14.00" fill="#666666">[double precision]</text>
<polygon fill="none" stroke="#000000" points="445,-472.5 445,-502.5 718,-502.5 718,-472.5 445,-472.5"/>
<text text-anchor="start" x="452" y="-483.9" font-family="Arial" font-size="14.00" fill="#000000">grade </text>
<text text-anchor="start" x="491.6816" y="-483.9" font-family="Arial" font-size="14.00" fill="#666666">[varchar]</text>
<polygon fill="none" stroke="#000000" points="445,-442.5 445,-472.5 718,-472.5 718,-442.5 445,-442.5"/>
<text text-anchor="start" x="452" y="-453.9" font-family="Arial" font-size="14.00" fill="#000000">allocated_time </text>
<text text-anchor="start" x="546.1304" y="-453.9" font-family="Arial" font-size="14.00" fill="#666666">[double precision]</text>
<polygon fill="none" stroke="#000000" points="445,-412.5 445,-442.5 718,-442.5 718,-412.5 445,-412.5"/>
<text text-anchor="start" x="452" y="-423.9" font-family="Arial" font-size="14.00" fill="#000000">proposal_category_id </text>
<text text-anchor="start" x="589.7068" y="-423.9" font-family="Arial" font-size="14.00" fill="#666666">[integer]</text>
<polygon fill="none" stroke="#000000" points="445,-382.5 445,-412.5 718,-412.5 718,-382.5 445,-382.5"/>
<text text-anchor="start" x="452" y="-393.9" font-family="Arial" font-size="14.00" fill="#000000">created_at </text>
<text text-anchor="start" x="522.028" y="-393.9" font-family="Arial" font-size="14.00" fill="#666666">[timestamp without time zone]</text>
<polygon fill="none" stroke="#000000" points="445,-352.5 445,-382.5 718,-382.5 718,-352.5 445,-352.5"/>
<text text-anchor="start" x="451.9636" y="-363.9" font-family="Arial" font-size="14.00" fill="#000000">updated_at </text>
<text text-anchor="start" x="525.8962" y="-363.9" font-family="Arial" font-size="14.00" fill="#666666">[timestamp without time zone]</text>
<polygon fill="none" stroke="#000000" stroke-width="3" points="443,-351.5 443,-719.5 719,-719.5 719,-351.5 443,-351.5"/>
</g>
<!-- public.proposal_category -->
<g id="node3" class="node">
<title>public.proposal_category</title>
<polygon fill="#efefef" stroke="transparent" points="411,-192.5 411,-227.5 752,-227.5 752,-192.5 411,-192.5"/>
<polygon fill="none" stroke="#000000" points="411,-192.5 411,-227.5 752,-227.5 752,-192.5 411,-192.5"/>
<text text-anchor="start" x="417.69" y="-205.3" font-family="Arial Bold" font-size="18.00" fill="#000000">public.proposal_category</text>
<text text-anchor="start" x="617.742" y="-205.3" font-family="Arial" font-size="14.00" fill="#000000">    </text>
<text text-anchor="start" x="651.9468" y="-205.3" font-family="Arial" font-size="14.00" fill="#666666">[BASE TABLE]</text>
<polygon fill="none" stroke="#000000" points="411,-162.5 411,-192.5 752,-192.5 752,-162.5 411,-162.5"/>
<text text-anchor="start" x="418" y="-173.9" font-family="Arial" font-size="14.00" fill="#000000">proposal_category_id    </text>
<text text-anchor="start" x="586.021" y="-173.9" font-family="Arial" font-size="14.00" fill="#666666">[integer]</text>
<polygon fill="none" stroke="#000000" points="411,-132.5 411,-162.5 752,-162.5 752,-132.5 411,-132.5"/>
<text text-anchor="start" x="418" y="-143.9" font-family="Arial" font-size="14.00" fill="#000000">proposal_category_name    </text>
<text text-anchor="start" x="610.1402" y="-143.9" font-family="Arial" font-size="14.00" fill="#666666">[varchar]</text>
<polygon fill="none" stroke="#000000" points="411,-102.5 411,-132.5 752,-132.5 752,-102.5 411,-102.5"/>
<text text-anchor="start" x="418" y="-113.9" font-family="Arial" font-size="14.00" fill="#000000">proposal_category_description    </text>
<text text-anchor="start" x="642.8092" y="-113.9" font-family="Arial" font-size="14.00" fill="#666666">[varchar]</text>
<polygon fill="none" stroke="#000000" points="411,-72.5 411,-102.5 752,-102.5 752,-72.5 411,-72.5"/>
<text text-anchor="start" x="418" y="-83.9" font-family="Arial" font-size="14.00" fill="#000000">created_at    </text>
<text text-anchor="start" x="518.3422" y="-83.9" font-family="Arial" font-size="14.00" fill="#666666">[timestamp without time zone]</text>
<polygon fill="none" stroke="#000000" points="411,-42.5 411,-72.5 752,-72.5 752,-42.5 411,-42.5"/>
<text text-anchor="start" x="418" y="-53.9" font-family="Arial" font-size="14.00" fill="#000000">updated_at    </text>
<text text-anchor="start" x="522.2468" y="-53.9" font-family="Arial" font-size="14.00" fill="#666666">[timestamp without time zone]</text>
</g>
<!-- public.proposal&#45;&gt;public.proposal_category -->
<g id="edge2" class="edge">
<title>public.proposal:proposal_category_id&#45;&gt;public.proposal_category:proposal_category_id</title>
<path fill="none" stroke="#000000" d="M434.7184,-426.7828C330.8838,-412.1191 302.3702,-177.5 411,-177.5"/>
<polygon fill="#000000" stroke="#000000" points="435.0242,-426.8041 444.6868,-431.9891 440.0121,-427.152 445,-427.5 445,-427.5 445,-427.5 440.0121,-427.152 445.3132,-423.0109 435.0242,-426.8041 435.0242,-426.8041"/>
<text text-anchor="start" x="7.133" y="-437.5" font-family="Arial" font-size="10.00" fill="#000000">FOREIGN KEY (proposal_category_id) REFERENCES proposal_category(proposal_category_id)</text>
</g>
<!-- public.target -->
<g id="node2" class="node">
<title>public.target</title>
<polygon fill="#efefef" stroke="transparent" points="430,-2612.5 430,-2647.5 733,-2647.5 733,-2612.5 430,-2612.5"/>
<polygon fill="none" stroke="#000000" points="430,-2612.5 430,-2647.5 733,-2647.5 733,-2612.5 430,-2612.5"/>
<text text-anchor="start" x="468.7038" y="-2625.3" font-family="Arial Bold" font-size="18.00" fill="#000000">public.target</text>
<text text-anchor="start" x="566.7282" y="-2625.3" font-family="Arial" font-size="14.00" fill="#000000">    </text>
<text text-anchor="start" x="600.933" y="-2625.3" font-family="Arial" font-size="14.00" fill="#666666">[BASE TABLE]</text>
<polygon fill="none" stroke="#000000" points="430,-2582.5 430,-2612.5 733,-2612.5 733,-2582.5 430,-2582.5"/>
<text text-anchor="start" x="437" y="-2593.9" font-family="Arial" font-size="14.00" fill="#000000">target_id    </text>
<text text-anchor="start" x="525.6662" y="-2593.9" font-family="Arial" font-size="14.00" fill="#666666">[bigint]</text>
<polygon fill="none" stroke="#000000" points="430,-2552.5 430,-2582.5 733,-2582.5 733,-2552.5 430,-2552.5"/>
<text text-anchor="start" x="437" y="-2563.9" font-family="Arial" font-size="14.00" fill="#000000">proposal_id    </text>
<text text-anchor="start" x="543.5568" y="-2563.9" font-family="Arial" font-size="14.00" fill="#666666">[varchar]</text>
<polygon fill="none" stroke="#000000" points="430,-2522.5 430,-2552.5 733,-2552.5 733,-2522.5 430,-2522.5"/>
<text text-anchor="start" x="437" y="-2533.9" font-family="Arial" font-size="14.00" fill="#000000">obj_id    </text>
<text text-anchor="start" x="508.5484" y="-2533.9" font-family="Arial" font-size="14.00" fill="#666666">[bigint]</text>
<polygon fill="none" stroke="#000000" points="430,-2492.5 430,-2522.5 733,-2522.5 733,-2492.5 430,-2492.5"/>
<text text-anchor="start" x="437" y="-2503.9" font-family="Arial" font-size="14.00" fill="#000000">ra    </text>
<text text-anchor="start" x="483.648" y="-2503.9" font-family="Arial" font-size="14.00" fill="#666666">[double precision]</text>
<polygon fill="none" stroke="#000000" points="430,-2462.5 430,-2492.5 733,-2492.5 733,-2462.5 430,-2462.5"/>
<text text-anchor="start" x="437" y="-2473.9" font-family="Arial" font-size="14.00" fill="#000000">dec    </text>
<text text-anchor="start" x="493.77" y="-2473.9" font-family="Arial" font-size="14.00" fill="#666666">[double precision]</text>
<polygon fill="none" stroke="#000000" points="430,-2432.5 430,-2462.5 733,-2462.5 733,-2432.5 430,-2432.5"/>
<text text-anchor="start" x="437" y="-2443.9" font-family="Arial" font-size="14.00" fill="#000000">epoch    </text>
<text text-anchor="start" x="509.3352" y="-2443.9" font-family="Arial" font-size="14.00" fill="#666666">[varchar]</text>
<polygon fill="none" stroke="#000000" points="430,-2402.5 430,-2432.5 733,-2432.5 733,-2402.5 430,-2402.5"/>
<text text-anchor="start" x="437" y="-2413.9" font-family="Arial" font-size="14.00" fill="#000000">parallax    </text>
<text text-anchor="start" x="520.209" y="-2413.9" font-family="Arial" font-size="14.00" fill="#666666">[double precision]</text>
<polygon fill="none" stroke="#000000" points="430,-2372.5 430,-2402.5 733,-2402.5 733,-2372.5 430,-2372.5"/>
<text text-anchor="start" x="437" y="-2383.9" font-family="Arial" font-size="14.00" fill="#000000">pmra    </text>
<text text-anchor="start" x="503.0912" y="-2383.9" font-family="Arial" font-size="14.00" fill="#666666">[double precision]</text>
<polygon fill="none" stroke="#000000" points="430,-2342.5 430,-2372.5 733,-2372.5 733,-2342.5 430,-2342.5"/>
<text text-anchor="start" x="437" y="-2353.9" font-family="Arial" font-size="14.00" fill="#000000">pmdec    </text>
<text text-anchor="start" x="513.2132" y="-2353.9" font-family="Arial" font-size="14.00" fill="#666666">[double precision]</text>
<polygon fill="none" stroke="#000000" points="430,-2312.5 430,-2342.5 733,-2342.5 733,-2312.5 430,-2312.5"/>
<text text-anchor="start" x="437" y="-2323.9" font-family="Arial" font-size="14.00" fill="#000000">tract    </text>
<text text-anchor="start" x="498.4292" y="-2323.9" font-family="Arial" font-size="14.00" fill="#666666">[integer]</text>
<polygon fill="none" stroke="#000000" points="430,-2282.5 430,-2312.5 733,-2312.5 733,-2282.5 430,-2282.5"/>
<text text-anchor="start" x="437" y="-2293.9" font-family="Arial" font-size="14.00" fill="#000000">patch    </text>
<text text-anchor="start" x="505.4432" y="-2293.9" font-family="Arial" font-size="14.00" fill="#666666">[integer]</text>
<polygon fill="none" stroke="#000000" points="430,-2252.5 430,-2282.5 733,-2282.5 733,-2252.5 430,-2252.5"/>
<text text-anchor="start" x="437" y="-2263.9" font-family="Arial" font-size="14.00" fill="#000000">target_type_id    </text>
<text text-anchor="start" x="559.9046" y="-2263.9" font-family="Arial" font-size="14.00" fill="#666666">[integer]</text>
<polygon fill="none" stroke="#000000" points="430,-2222.5 430,-2252.5 733,-2252.5 733,-2222.5 430,-2222.5"/>
<text text-anchor="start" x="437" y="-2233.9" font-family="Arial" font-size="14.00" fill="#000000">input_catalog_id    </text>
<text text-anchor="start" x="573.1318" y="-2233.9" font-family="Arial" font-size="14.00" fill="#666666">[integer]</text>
<polygon fill="none" stroke="#000000" points="430,-2192.5 430,-2222.5 733,-2222.5 733,-2192.5 430,-2192.5"/>
<text text-anchor="start" x="437" y="-2203.9" font-family="Arial" font-size="14.00" fill="#000000">fiber_mag_g    </text>
<text text-anchor="start" x="549.0014" y="-2203.9" font-family="Arial" font-size="14.00" fill="#666666">[double precision]</text>
<polygon fill="none" stroke="#000000" points="430,-2162.5 430,-2192.5 733,-2192.5 733,-2162.5 430,-2162.5"/>
<text text-anchor="start" x="437" y="-2173.9" font-family="Arial" font-size="14.00" fill="#000000">fiber_mag_r    </text>
<text text-anchor="start" x="545.8794" y="-2173.9" font-family="Arial" font-size="14.00" fill="#666666">[double precision]</text>
<polygon fill="none" stroke="#000000" points="430,-2132.5 430,-2162.5 733,-2162.5 733,-2132.5 430,-2132.5"/>
<text text-anchor="start" x="437" y="-2143.9" font-family="Arial" font-size="14.00" fill="#000000">fiber_mag_i    </text>
<text text-anchor="start" x="544.3254" y="-2143.9" font-family="Arial" font-size="14.00" fill="#666666">[double precision]</text>
<polygon fill="none" stroke="#000000" points="430,-2102.5 430,-2132.5 733,-2132.5 733,-2102.5 430,-2102.5"/>
<text text-anchor="start" x="437" y="-2113.9" font-family="Arial" font-size="14.00" fill="#000000">fiber_mag_z    </text>
<text text-anchor="start" x="548.2188" y="-2113.9" font-family="Arial" font-size="14.00" fill="#666666">[double precision]</text>
<polygon fill="none" stroke="#000000" points="430,-2072.5 430,-2102.5 733,-2102.5 733,-2072.5 430,-2072.5"/>
<text text-anchor="start" x="437" y="-2083.9" font-family="Arial" font-size="14.00" fill="#000000">fiber_mag_y    </text>
<text text-anchor="start" x="548.2188" y="-2083.9" font-family="Arial" font-size="14.00" fill="#666666">[double precision]</text>
<polygon fill="none" stroke="#000000" points="430,-2042.5 430,-2072.5 733,-2072.5 733,-2042.5 430,-2042.5"/>
<text text-anchor="start" x="437" y="-2053.9" font-family="Arial" font-size="14.00" fill="#000000">fiber_mag_j    </text>
<text text-anchor="start" x="544.3254" y="-2053.9" font-family="Arial" font-size="14.00" fill="#666666">[double precision]</text>
<polygon fill="none" stroke="#000000" points="430,-2012.5 430,-2042.5 733,-2042.5 733,-2012.5 430,-2012.5"/>
<text text-anchor="start" x="437" y="-2023.9" font-family="Arial" font-size="14.00" fill="#000000">psf_mag_g    </text>
<text text-anchor="start" x="540.4516" y="-2023.9" font-family="Arial" font-size="14.00" fill="#666666">[double precision]</text>
<polygon fill="none" stroke="#000000" points="430,-1982.5 430,-2012.5 733,-2012.5 733,-1982.5 430,-1982.5"/>
<text text-anchor="start" x="437" y="-1993.9" font-family="Arial" font-size="14.00" fill="#000000">psf_mag_r    </text>
<text text-anchor="start" x="537.3296" y="-1993.9" font-family="Arial" font-size="14.00" fill="#666666">[double precision]</text>
<polygon fill="none" stroke="#000000" points="430,-1952.5 430,-1982.5 733,-1982.5 733,-1952.5 430,-1952.5"/>
<text text-anchor="start" x="437" y="-1963.9" font-family="Arial" font-size="14.00" fill="#000000">psf_mag_i    </text>
<text text-anchor="start" x="535.7756" y="-1963.9" font-family="Arial" font-size="14.00" fill="#666666">[double precision]</text>
<polygon fill="none" stroke="#000000" points="430,-1922.5 430,-1952.5 733,-1952.5 733,-1922.5 430,-1922.5"/>
<text text-anchor="start" x="437" y="-1933.9" font-family="Arial" font-size="14.00" fill="#000000">psf_mag_z    </text>
<text text-anchor="start" x="539.669" y="-1933.9" font-family="Arial" font-size="14.00" fill="#666666">[double precision]</text>
<polygon fill="none" stroke="#000000" points="430,-1892.5 430,-1922.5 733,-1922.5 733,-1892.5 430,-1892.5"/>
<text text-anchor="start" x="437" y="-1903.9" font-family="Arial" font-size="14.00" fill="#000000">psf_mag_y    </text>
<text text-anchor="start" x="539.669" y="-1903.9" font-family="Arial" font-size="14.00" fill="#666666">[double precision]</text>
<polygon fill="none" stroke="#000000" points="430,-1862.5 430,-1892.5 733,-1892.5 733,-1862.5 430,-1862.5"/>
<text text-anchor="start" x="437" y="-1873.9" font-family="Arial" font-size="14.00" fill="#000000">psf_mag_j    </text>
<text text-anchor="start" x="535.7756" y="-1873.9" font-family="Arial" font-size="14.00" fill="#666666">[double precision]</text>
<polygon fill="none" stroke="#000000" points="430,-1832.5 430,-1862.5 733,-1862.5 733,-1832.5 430,-1832.5"/>
<text text-anchor="start" x="437" y="-1843.9" font-family="Arial" font-size="14.00" fill="#000000">psf_flux_g    </text>
<text text-anchor="start" x="535.0056" y="-1843.9" font-family="Arial" font-size="14.00" fill="#666666">[double precision]</text>
<polygon fill="none" stroke="#000000" points="430,-1802.5 430,-1832.5 733,-1832.5 733,-1802.5 430,-1802.5"/>
<text text-anchor="start" x="437" y="-1813.9" font-family="Arial" font-size="14.00" fill="#000000">psf_flux_r    </text>
<text text-anchor="start" x="531.8836" y="-1813.9" font-family="Arial" font-size="14.00" fill="#666666">[double precision]</text>
<polygon fill="none" stroke="#000000" points="430,-1772.5 430,-1802.5 733,-1802.5 733,-1772.5 430,-1772.5"/>
<text text-anchor="start" x="437" y="-1783.9" font-family="Arial" font-size="14.00" fill="#000000">psf_flux_i    </text>
<text text-anchor="start" x="530.3296" y="-1783.9" font-family="Arial" font-size="14.00" fill="#666666">[double precision]</text>
<polygon fill="none" stroke="#000000" points="430,-1742.5 430,-1772.5 733,-1772.5 733,-1742.5 430,-1742.5"/>
<text text-anchor="start" x="437" y="-1753.9" font-family="Arial" font-size="14.00" fill="#000000">psf_flux_z    </text>
<text text-anchor="start" x="534.223" y="-1753.9" font-family="Arial" font-size="14.00" fill="#666666">[double precision]</text>
<polygon fill="none" stroke="#000000" points="430,-1712.5 430,-1742.5 733,-1742.5 733,-1712.5 430,-1712.5"/>
<text text-anchor="start" x="437" y="-1723.9" font-family="Arial" font-size="14.00" fill="#000000">psf_flux_y    </text>
<text text-anchor="start" x="534.223" y="-1723.9" font-family="Arial" font-size="14.00" fill="#666666">[double precision]</text>
<polygon fill="none" stroke="#000000" points="430,-1682.5 430,-1712.5 733,-1712.5 733,-1682.5 430,-1682.5"/>
<text text-anchor="start" x="437" y="-1693.9" font-family="Arial" font-size="14.00" fill="#000000">psf_flux_j    </text>
<text text-anchor="start" x="530.3296" y="-1693.9" font-family="Arial" font-size="14.00" fill="#666666">[double precision]</text>
<polygon fill="none" stroke="#000000" points="430,-1652.5 430,-1682.5 733,-1682.5 733,-1652.5 430,-1652.5"/>
<text text-anchor="start" x="437" y="-1663.9" font-family="Arial" font-size="14.00" fill="#000000">priority    </text>
<text text-anchor="start" x="513.195" y="-1663.9" font-family="Arial" font-size="14.00" fill="#666666">[double precision]</text>
<polygon fill="none" stroke="#000000" points="430,-1622.5 430,-1652.5 733,-1652.5 733,-1622.5 430,-1622.5"/>
<text text-anchor="start" x="437" y="-1633.9" font-family="Arial" font-size="14.00" fill="#000000">effective_exptime    </text>
<text text-anchor="start" x="580.1192" y="-1633.9" font-family="Arial" font-size="14.00" fill="#666666">[double precision]</text>
<polygon fill="none" stroke="#000000" points="430,-1592.5 430,-1622.5 733,-1622.5 733,-1592.5 430,-1592.5"/>
<text text-anchor="start" x="437" y="-1603.9" font-family="Arial" font-size="14.00" fill="#000000">is_medium_resolution    </text>
<text text-anchor="start" x="607.3296" y="-1603.9" font-family="Arial" font-size="14.00" fill="#666666">[boolean]</text>
<polygon fill="none" stroke="#000000" points="430,-1562.5 430,-1592.5 733,-1592.5 733,-1562.5 430,-1562.5"/>
<text text-anchor="start" x="437" y="-1573.9" font-family="Arial" font-size="14.00" fill="#000000">qa_relative_throughput    </text>
<text text-anchor="start" x="614.3674" y="-1573.9" font-family="Arial" font-size="14.00" fill="#666666">[double precision]</text>
<polygon fill="none" stroke="#000000" points="430,-1532.5 430,-1562.5 733,-1562.5 733,-1532.5 430,-1532.5"/>
<text text-anchor="start" x="437" y="-1543.9" font-family="Arial" font-size="14.00" fill="#000000">qa_relative_noise    </text>
<text text-anchor="start" x="580.9018" y="-1543.9" font-family="Arial" font-size="14.00" fill="#666666">[double precision]</text>
<polygon fill="none" stroke="#000000" points="430,-1502.5 430,-1532.5 733,-1532.5 733,-1502.5 430,-1502.5"/>
<text text-anchor="start" x="437" y="-1513.9" font-family="Arial" font-size="14.00" fill="#000000">qa_reference_lambda    </text>
<text text-anchor="start" x="607.3576" y="-1513.9" font-family="Arial" font-size="14.00" fill="#666666">[double precision]</text>
<polygon fill="none" stroke="#000000" points="430,-1472.5 430,-1502.5 733,-1502.5 733,-1472.5 430,-1472.5"/>
<text text-anchor="start" x="437" y="-1483.9" font-family="Arial" font-size="14.00" fill="#000000">is_cluster    </text>
<text text-anchor="start" x="530.317" y="-1483.9" font-family="Arial" font-size="14.00" fill="#666666">[boolean]</text>
<polygon fill="none" stroke="#000000" points="430,-1442.5 430,-1472.5 733,-1472.5 733,-1442.5 430,-1442.5"/>
<text text-anchor="start" x="437" y="-1453.9" font-family="Arial" font-size="14.00" fill="#000000">created_at    </text>
<text text-anchor="start" x="537.3422" y="-1453.9" font-family="Arial" font-size="14.00" fill="#666666">[timestamp without time zone]</text>
<polygon fill="none" stroke="#000000" points="430,-1412.5 430,-1442.5 733,-1442.5 733,-1412.5 430,-1412.5"/>
<text text-anchor="start" x="436.8065" y="-1423.9" font-family="Arial" font-size="14.00" fill="#000000">updated_at    </text>
<text text-anchor="start" x="541.0533" y="-1423.9" font-family="Arial" font-size="14.00" fill="#666666">[timestamp without time zone]</text>
<polygon fill="none" stroke="#000000" points="430,-1382.5 430,-1412.5 733,-1412.5 733,-1382.5 430,-1382.5"/>
<text text-anchor="start" x="437" y="-1393.9" font-family="Arial" font-size="14.00" fill="#000000">filter_g    </text>
<text text-anchor="start" x="513.2076" y="-1393.9" font-family="Arial" font-size="14.00" fill="#666666">[varchar]</text>
<polygon fill="none" stroke="#000000" points="430,-1352.5 430,-1382.5 733,-1382.5 733,-1352.5 430,-1352.5"/>
<text text-anchor="start" x="437" y="-1363.9" font-family="Arial" font-size="14.00" fill="#000000">filter_r    </text>
<text text-anchor="start" x="510.0856" y="-1363.9" font-family="Arial" font-size="14.00" fill="#666666">[varchar]</text>
<polygon fill="none" stroke="#000000" points="430,-1322.5 430,-1352.5 733,-1352.5 733,-1322.5 430,-1322.5"/>
<text text-anchor="start" x="437" y="-1333.9" font-family="Arial" font-size="14.00" fill="#000000">filter_i    </text>
<text text-anchor="start" x="508.5316" y="-1333.9" font-family="Arial" font-size="14.00" fill="#666666">[varchar]</text>
<polygon fill="none" stroke="#000000" points="430,-1292.5 430,-1322.5 733,-1322.5 733,-1292.5 430,-1292.5"/>
<text text-anchor="start" x="437" y="-1303.9" font-family="Arial" font-size="14.00" fill="#000000">filter_z    </text>
<text text-anchor="start" x="512.425" y="-1303.9" font-family="Arial" font-size="14.00" fill="#666666">[varchar]</text>
<polygon fill="none" stroke="#000000" points="430,-1262.5 430,-1292.5 733,-1292.5 733,-1262.5 430,-1262.5"/>
<text text-anchor="start" x="437" y="-1273.9" font-family="Arial" font-size="14.00" fill="#000000">filter_y    </text>
<text text-anchor="start" x="512.425" y="-1273.9" font-family="Arial" font-size="14.00" fill="#666666">[varchar]</text>
<polygon fill="none" stroke="#000000" points="430,-1232.5 430,-1262.5 733,-1262.5 733,-1232.5 430,-1232.5"/>
<text text-anchor="start" x="437" y="-1243.9" font-family="Arial" font-size="14.00" fill="#000000">filter_j    </text>
<text text-anchor="start" x="508.5316" y="-1243.9" font-family="Arial" font-size="14.00" fill="#666666">[varchar]</text>
<polygon fill="none" stroke="#000000" points="430,-1202.5 430,-1232.5 733,-1232.5 733,-1202.5 430,-1202.5"/>
<text text-anchor="start" x="437" y="-1213.9" font-family="Arial" font-size="14.00" fill="#000000">psf_mag_error_g    </text>
<text text-anchor="start" x="577.7812" y="-1213.9" font-family="Arial" font-size="14.00" fill="#666666">[double precision]</text>
<polygon fill="none" stroke="#000000" points="430,-1172.5 430,-1202.5 733,-1202.5 733,-1172.5 430,-1172.5"/>
<text text-anchor="start" x="437" y="-1183.9" font-family="Arial" font-size="14.00" fill="#000000">psf_mag_error_r    </text>
<text text-anchor="start" x="574.6592" y="-1183.9" font-family="Arial" font-size="14.00" fill="#666666">[double precision]</text>
<polygon fill="none" stroke="#000000" points="430,-1142.5 430,-1172.5 733,-1172.5 733,-1142.5 430,-1142.5"/>
<text text-anchor="start" x="437" y="-1153.9" font-family="Arial" font-size="14.00" fill="#000000">psf_mag_error_i    </text>
<text text-anchor="start" x="573.1052" y="-1153.9" font-family="Arial" font-size="14.00" fill="#666666">[double precision]</text>
<polygon fill="none" stroke="#000000" points="430,-1112.5 430,-1142.5 733,-1142.5 733,-1112.5 430,-1112.5"/>
<text text-anchor="start" x="437" y="-1123.9" font-family="Arial" font-size="14.00" fill="#000000">psf_mag_error_z    </text>
<text text-anchor="start" x="576.9986" y="-1123.9" font-family="Arial" font-size="14.00" fill="#666666">[double precision]</text>
<polygon fill="none" stroke="#000000" points="430,-1082.5 430,-1112.5 733,-1112.5 733,-1082.5 430,-1082.5"/>
<text text-anchor="start" x="437" y="-1093.9" font-family="Arial" font-size="14.00" fill="#000000">psf_mag_error_y    </text>
<text text-anchor="start" x="576.9986" y="-1093.9" font-family="Arial" font-size="14.00" fill="#666666">[double precision]</text>
<polygon fill="none" stroke="#000000" points="430,-1052.5 430,-1082.5 733,-1082.5 733,-1052.5 430,-1052.5"/>
<text text-anchor="start" x="437" y="-1063.9" font-family="Arial" font-size="14.00" fill="#000000">psf_mag_error_j    </text>
<text text-anchor="start" x="573.1052" y="-1063.9" font-family="Arial" font-size="14.00" fill="#666666">[double precision]</text>
<polygon fill="none" stroke="#000000" points="430,-1022.5 430,-1052.5 733,-1052.5 733,-1022.5 430,-1022.5"/>
<text text-anchor="start" x="437" y="-1033.9" font-family="Arial" font-size="14.00" fill="#000000">psf_flux_error_g    </text>
<text text-anchor="start" x="572.3352" y="-1033.9" font-family="Arial" font-size="14.00" fill="#666666">[double precision]</text>
<polygon fill="none" stroke="#000000" points="430,-992.5 430,-1022.5 733,-1022.5 733,-992.5 430,-992.5"/>
<text text-anchor="start" x="437" y="-1003.9" font-family="Arial" font-size="14.00" fill="#000000">psf_flux_error_r    </text>
<text text-anchor="start" x="569.2132" y="-1003.9" font-family="Arial" font-size="14.00" fill="#666666">[double precision]</text>
<polygon fill="none" stroke="#000000" points="430,-962.5 430,-992.5 733,-992.5 733,-962.5 430,-962.5"/>
<text text-anchor="start" x="437" y="-973.9" font-family="Arial" font-size="14.00" fill="#000000">psf_flux_error_i    </text>
<text text-anchor="start" x="567.6592" y="-973.9" font-family="Arial" font-size="14.00" fill="#666666">[double precision]</text>
<polygon fill="none" stroke="#000000" points="430,-932.5 430,-962.5 733,-962.5 733,-932.5 430,-932.5"/>
<text text-anchor="start" x="437" y="-943.9" font-family="Arial" font-size="14.00" fill="#000000">psf_flux_error_z    </text>
<text text-anchor="start" x="571.5526" y="-943.9" font-family="Arial" font-size="14.00" fill="#666666">[double precision]</text>
<polygon fill="none" stroke="#000000" points="430,-902.5 430,-932.5 733,-932.5 733,-902.5 430,-902.5"/>
<text text-anchor="start" x="437" y="-913.9" font-family="Arial" font-size="14.00" fill="#000000">psf_flux_error_y    </text>
<text text-anchor="start" x="571.5526" y="-913.9" font-family="Arial" font-size="14.00" fill="#666666">[double precision]</text>
<polygon fill="none" stroke="#000000" points="430,-872.5 430,-902.5 733,-902.5 733,-872.5 430,-872.5"/>
<text text-anchor="start" x="437" y="-883.9" font-family="Arial" font-size="14.00" fill="#000000">psf_flux_error_j    </text>
<text text-anchor="start" x="567.6592" y="-883.9" font-family="Arial" font-size="14.00" fill="#666666">[double precision]</text>
<polygon fill="none" stroke="#000000" points="430,-842.5 430,-872.5 733,-872.5 733,-842.5 430,-842.5"/>
<text text-anchor="start" x="437" y="-853.9" font-family="Arial" font-size="14.00" fill="#000000">ob_code    </text>
<text text-anchor="start" x="524.9004" y="-853.9" font-family="Arial" font-size="14.00" fill="#666666">[varchar]</text>
</g>
<!-- public.target&#45;&gt;public.proposal -->
<g id="edge1" class="edge">
<title>public.target:proposal_id&#45;&gt;public.proposal:proposal_id</title>
<path fill="none" stroke="#000000" d="M421.032,-2562.7032C325.3978,-2457.8027 342.5337,-667.5 445,-667.5"/>
<polygon fill="#000000" stroke="#000000" points="421.1821,-2562.7834 427.8775,-2571.468 425.5911,-2565.1417 430,-2567.5 430,-2567.5 430,-2567.5 425.5911,-2565.1417 432.1225,-2563.532 421.1821,-2562.7834 421.1821,-2562.7834"/>
<text text-anchor="start" x="122.9875" y="-2577.5" font-family="Arial" font-size="10.00" fill="#000000">FOREIGN KEY (proposal_id) REFERENCES proposal(proposal_id)</text>
</g>
</g>
</svg>
