<?xml version="1.0" encoding="UTF-8" standalone="no"?>
<!DOCTYPE svg PUBLIC "-//W3C//DTD SVG 1.1//EN"
 "http://www.w3.org/Graphics/SVG/1.1/DTD/svg11.dtd">
<!-- Generated by graphviz version 2.40.1 (20161225.0304)
 -->
<!-- Title: public.fluxstd Pages: 1 -->
<svg width="1211pt" height="2152pt"
 viewBox="0.00 0.00 1211.00 2152.00" xmlns="http://www.w3.org/2000/svg" xmlns:xlink="http://www.w3.org/1999/xlink">
<g id="graph0" class="graph" transform="scale(1 1) rotate(0) translate(4 2148)">
<title>public.fluxstd</title>
<polygon fill="#ffffff" stroke="transparent" points="-4,4 -4,-2148 1207,-2148 1207,4 -4,4"/>
<!-- public.fluxstd -->
<g id="node1" class="node">
<title>public.fluxstd</title>
<polygon fill="#efefef" stroke="transparent" points="872.5,-2062.5 872.5,-2097.5 1145.5,-2097.5 1145.5,-2062.5 872.5,-2062.5"/>
<polygon fill="none" stroke="#000000" points="872.5,-2062.5 872.5,-2097.5 1145.5,-2097.5 1145.5,-2062.5 872.5,-2062.5"/>
<text text-anchor="start" x="893.2059" y="-2075.3" font-family="Arial Bold" font-size="18.00" fill="#000000">public.fluxstd</text>
<text text-anchor="start" x="997.2261" y="-2075.3" font-family="Arial" font-size="14.00" fill="#000000">    </text>
<text text-anchor="start" x="1031.4309" y="-2075.3" font-family="Arial" font-size="14.00" fill="#666666">[BASE TABLE]</text>
<polygon fill="none" stroke="#000000" points="872.5,-2032.5 872.5,-2062.5 1145.5,-2062.5 1145.5,-2032.5 872.5,-2032.5"/>
<text text-anchor="start" x="879.5" y="-2043.9" font-family="Arial" font-size="14.00" fill="#000000">fluxstd_id </text>
<text text-anchor="start" x="942.5154" y="-2043.9" font-family="Arial" font-size="14.00" fill="#666666">[bigint]</text>
<polygon fill="none" stroke="#000000" points="872.5,-2002.5 872.5,-2032.5 1145.5,-2032.5 1145.5,-2002.5 872.5,-2002.5"/>
<text text-anchor="start" x="879.5" y="-2013.9" font-family="Arial" font-size="14.00" fill="#000000">obj_id </text>
<text text-anchor="start" x="920.7342" y="-2013.9" font-family="Arial" font-size="14.00" fill="#666666">[bigint]</text>
<polygon fill="none" stroke="#000000" points="872.5,-1972.5 872.5,-2002.5 1145.5,-2002.5 1145.5,-1972.5 872.5,-1972.5"/>
<text text-anchor="start" x="879.5" y="-1983.9" font-family="Arial" font-size="14.00" fill="#000000">ra </text>
<text text-anchor="start" x="895.8338" y="-1983.9" font-family="Arial" font-size="14.00" fill="#666666">[double precision]</text>
<polygon fill="none" stroke="#000000" points="872.5,-1942.5 872.5,-1972.5 1145.5,-1972.5 1145.5,-1942.5 872.5,-1942.5"/>
<text text-anchor="start" x="879.5" y="-1953.9" font-family="Arial" font-size="14.00" fill="#000000">dec </text>
<text text-anchor="start" x="905.9558" y="-1953.9" font-family="Arial" font-size="14.00" fill="#666666">[double precision]</text>
<polygon fill="none" stroke="#000000" points="872.5,-1912.5 872.5,-1942.5 1145.5,-1942.5 1145.5,-1912.5 872.5,-1912.5"/>
<text text-anchor="start" x="879.5" y="-1923.9" font-family="Arial" font-size="14.00" fill="#000000">epoch </text>
<text text-anchor="start" x="921.521" y="-1923.9" font-family="Arial" font-size="14.00" fill="#666666">[varchar]</text>
<polygon fill="none" stroke="#000000" points="872.5,-1882.5 872.5,-1912.5 1145.5,-1912.5 1145.5,-1882.5 872.5,-1882.5"/>
<text text-anchor="start" x="879.5" y="-1893.9" font-family="Arial" font-size="14.00" fill="#000000">parallax </text>
<text text-anchor="start" x="932.3948" y="-1893.9" font-family="Arial" font-size="14.00" fill="#666666">[double precision]</text>
<polygon fill="none" stroke="#000000" points="872.5,-1852.5 872.5,-1882.5 1145.5,-1882.5 1145.5,-1852.5 872.5,-1852.5"/>
<text text-anchor="start" x="879.5" y="-1863.9" font-family="Arial" font-size="14.00" fill="#000000">parallax_error </text>
<text text-anchor="start" x="969.7244" y="-1863.9" font-family="Arial" font-size="14.00" fill="#666666">[double precision]</text>
<polygon fill="none" stroke="#000000" points="872.5,-1822.5 872.5,-1852.5 1145.5,-1852.5 1145.5,-1822.5 872.5,-1822.5"/>
<text text-anchor="start" x="879.5" y="-1833.9" font-family="Arial" font-size="14.00" fill="#000000">pmra </text>
<text text-anchor="start" x="915.277" y="-1833.9" font-family="Arial" font-size="14.00" fill="#666666">[double precision]</text>
<polygon fill="none" stroke="#000000" points="872.5,-1792.5 872.5,-1822.5 1145.5,-1822.5 1145.5,-1792.5 872.5,-1792.5"/>
<text text-anchor="start" x="879.5" y="-1803.9" font-family="Arial" font-size="14.00" fill="#000000">pmra_error </text>
<text text-anchor="start" x="952.6066" y="-1803.9" font-family="Arial" font-size="14.00" fill="#666666">[double precision]</text>
<polygon fill="none" stroke="#000000" points="872.5,-1762.5 872.5,-1792.5 1145.5,-1792.5 1145.5,-1762.5 872.5,-1762.5"/>
<text text-anchor="start" x="879.5" y="-1773.9" font-family="Arial" font-size="14.00" fill="#000000">pmdec </text>
<text text-anchor="start" x="925.399" y="-1773.9" font-family="Arial" font-size="14.00" fill="#666666">[double precision]</text>
<polygon fill="none" stroke="#000000" points="872.5,-1732.5 872.5,-1762.5 1145.5,-1762.5 1145.5,-1732.5 872.5,-1732.5"/>
<text text-anchor="start" x="879.5" y="-1743.9" font-family="Arial" font-size="14.00" fill="#000000">pmdec_error </text>
<text text-anchor="start" x="962.7286" y="-1743.9" font-family="Arial" font-size="14.00" fill="#666666">[double precision]</text>
<polygon fill="none" stroke="#000000" points="872.5,-1702.5 872.5,-1732.5 1145.5,-1732.5 1145.5,-1702.5 872.5,-1702.5"/>
<text text-anchor="start" x="879.5" y="-1713.9" font-family="Arial" font-size="14.00" fill="#000000">tract </text>
<text text-anchor="start" x="910.615" y="-1713.9" font-family="Arial" font-size="14.00" fill="#666666">[integer]</text>
<polygon fill="none" stroke="#000000" points="872.5,-1672.5 872.5,-1702.5 1145.5,-1702.5 1145.5,-1672.5 872.5,-1672.5"/>
<text text-anchor="start" x="879.5" y="-1683.9" font-family="Arial" font-size="14.00" fill="#000000">patch </text>
<text text-anchor="start" x="917.629" y="-1683.9" font-family="Arial" font-size="14.00" fill="#666666">[integer]</text>
<polygon fill="none" stroke="#000000" points="872.5,-1642.5 872.5,-1672.5 1145.5,-1672.5 1145.5,-1642.5 872.5,-1642.5"/>
<text text-anchor="start" x="879.5" y="-1653.9" font-family="Arial" font-size="14.00" fill="#000000">target_type_id </text>
<text text-anchor="start" x="972.0904" y="-1653.9" font-family="Arial" font-size="14.00" fill="#666666">[integer]</text>
<polygon fill="none" stroke="#000000" points="872.5,-1612.5 872.5,-1642.5 1145.5,-1642.5 1145.5,-1612.5 872.5,-1612.5"/>
<text text-anchor="start" x="879.5" y="-1623.9" font-family="Arial" font-size="14.00" fill="#000000">input_catalog_id </text>
<text text-anchor="start" x="985.3176" y="-1623.9" font-family="Arial" font-size="14.00" fill="#666666">[integer]</text>
<polygon fill="none" stroke="#000000" points="872.5,-1582.5 872.5,-1612.5 1145.5,-1612.5 1145.5,-1582.5 872.5,-1582.5"/>
<text text-anchor="start" x="879.5" y="-1593.9" font-family="Arial" font-size="14.00" fill="#000000">psf_mag_g </text>
<text text-anchor="start" x="952.6374" y="-1593.9" font-family="Arial" font-size="14.00" fill="#666666">[double precision]</text>
<polygon fill="none" stroke="#000000" points="872.5,-1552.5 872.5,-1582.5 1145.5,-1582.5 1145.5,-1552.5 872.5,-1552.5"/>
<text text-anchor="start" x="879.5" y="-1563.9" font-family="Arial" font-size="14.00" fill="#000000">psf_mag_r </text>
<text text-anchor="start" x="949.5154" y="-1563.9" font-family="Arial" font-size="14.00" fill="#666666">[double precision]</text>
<polygon fill="none" stroke="#000000" points="872.5,-1522.5 872.5,-1552.5 1145.5,-1552.5 1145.5,-1522.5 872.5,-1522.5"/>
<text text-anchor="start" x="879.5" y="-1533.9" font-family="Arial" font-size="14.00" fill="#000000">psf_mag_i </text>
<text text-anchor="start" x="947.9614" y="-1533.9" font-family="Arial" font-size="14.00" fill="#666666">[double precision]</text>
<polygon fill="none" stroke="#000000" points="872.5,-1492.5 872.5,-1522.5 1145.5,-1522.5 1145.5,-1492.5 872.5,-1492.5"/>
<text text-anchor="start" x="879.5" y="-1503.9" font-family="Arial" font-size="14.00" fill="#000000">psf_mag_z </text>
<text text-anchor="start" x="951.8548" y="-1503.9" font-family="Arial" font-size="14.00" fill="#666666">[double precision]</text>
<polygon fill="none" stroke="#000000" points="872.5,-1462.5 872.5,-1492.5 1145.5,-1492.5 1145.5,-1462.5 872.5,-1462.5"/>
<text text-anchor="start" x="879.5" y="-1473.9" font-family="Arial" font-size="14.00" fill="#000000">psf_mag_y </text>
<text text-anchor="start" x="951.8548" y="-1473.9" font-family="Arial" font-size="14.00" fill="#666666">[double precision]</text>
<polygon fill="none" stroke="#000000" points="872.5,-1432.5 872.5,-1462.5 1145.5,-1462.5 1145.5,-1432.5 872.5,-1432.5"/>
<text text-anchor="start" x="879.5" y="-1443.9" font-family="Arial" font-size="14.00" fill="#000000">psf_mag_j </text>
<text text-anchor="start" x="947.9614" y="-1443.9" font-family="Arial" font-size="14.00" fill="#666666">[double precision]</text>
<polygon fill="none" stroke="#000000" points="872.5,-1402.5 872.5,-1432.5 1145.5,-1432.5 1145.5,-1402.5 872.5,-1402.5"/>
<text text-anchor="start" x="879.5" y="-1413.9" font-family="Arial" font-size="14.00" fill="#000000">psf_flux_g </text>
<text text-anchor="start" x="947.1914" y="-1413.9" font-family="Arial" font-size="14.00" fill="#666666">[double precision]</text>
<polygon fill="none" stroke="#000000" points="872.5,-1372.5 872.5,-1402.5 1145.5,-1402.5 1145.5,-1372.5 872.5,-1372.5"/>
<text text-anchor="start" x="879.5" y="-1383.9" font-family="Arial" font-size="14.00" fill="#000000">psf_flux_r </text>
<text text-anchor="start" x="944.0694" y="-1383.9" font-family="Arial" font-size="14.00" fill="#666666">[double precision]</text>
<polygon fill="none" stroke="#000000" points="872.5,-1342.5 872.5,-1372.5 1145.5,-1372.5 1145.5,-1342.5 872.5,-1342.5"/>
<text text-anchor="start" x="879.5" y="-1353.9" font-family="Arial" font-size="14.00" fill="#000000">psf_flux_i </text>
<text text-anchor="start" x="942.5154" y="-1353.9" font-family="Arial" font-size="14.00" fill="#666666">[double precision]</text>
<polygon fill="none" stroke="#000000" points="872.5,-1312.5 872.5,-1342.5 1145.5,-1342.5 1145.5,-1312.5 872.5,-1312.5"/>
<text text-anchor="start" x="879.5" y="-1323.9" font-family="Arial" font-size="14.00" fill="#000000">psf_flux_z </text>
<text text-anchor="start" x="946.4088" y="-1323.9" font-family="Arial" font-size="14.00" fill="#666666">[double precision]</text>
<polygon fill="none" stroke="#000000" points="872.5,-1282.5 872.5,-1312.5 1145.5,-1312.5 1145.5,-1282.5 872.5,-1282.5"/>
<text text-anchor="start" x="879.5" y="-1293.9" font-family="Arial" font-size="14.00" fill="#000000">psf_flux_y </text>
<text text-anchor="start" x="946.4088" y="-1293.9" font-family="Arial" font-size="14.00" fill="#666666">[double precision]</text>
<polygon fill="none" stroke="#000000" points="872.5,-1252.5 872.5,-1282.5 1145.5,-1282.5 1145.5,-1252.5 872.5,-1252.5"/>
<text text-anchor="start" x="879.5" y="-1263.9" font-family="Arial" font-size="14.00" fill="#000000">psf_flux_j </text>
<text text-anchor="start" x="942.5154" y="-1263.9" font-family="Arial" font-size="14.00" fill="#666666">[double precision]</text>
<polygon fill="none" stroke="#000000" points="872.5,-1222.5 872.5,-1252.5 1145.5,-1252.5 1145.5,-1222.5 872.5,-1222.5"/>
<text text-anchor="start" x="879.5" y="-1233.9" font-family="Arial" font-size="14.00" fill="#000000">prob_f_star </text>
<text text-anchor="start" x="954.1886" y="-1233.9" font-family="Arial" font-size="14.00" fill="#666666">[double precision]</text>
<polygon fill="none" stroke="#000000" points="872.5,-1192.5 872.5,-1222.5 1145.5,-1222.5 1145.5,-1192.5 872.5,-1192.5"/>
<text text-anchor="start" x="879.5" y="-1203.9" font-family="Arial" font-size="14.00" fill="#000000">flags_dist </text>
<text text-anchor="start" x="942.5154" y="-1203.9" font-family="Arial" font-size="14.00" fill="#666666">[boolean]</text>
<polygon fill="none" stroke="#000000" points="872.5,-1162.5 872.5,-1192.5 1145.5,-1192.5 1145.5,-1162.5 872.5,-1162.5"/>
<text text-anchor="start" x="879.5" y="-1173.9" font-family="Arial" font-size="14.00" fill="#000000">flags_ebv </text>
<text text-anchor="start" x="943.3008" y="-1173.9" font-family="Arial" font-size="14.00" fill="#666666">[boolean]</text>
<polygon fill="none" stroke="#000000" points="872.5,-1132.5 872.5,-1162.5 1145.5,-1162.5 1145.5,-1132.5 872.5,-1132.5"/>
<text text-anchor="start" x="879.5" y="-1143.9" font-family="Arial" font-size="14.00" fill="#000000">version </text>
<text text-anchor="start" x="928.5056" y="-1143.9" font-family="Arial" font-size="14.00" fill="#666666">[varchar]</text>
<polygon fill="none" stroke="#000000" points="872.5,-1102.5 872.5,-1132.5 1145.5,-1132.5 1145.5,-1102.5 872.5,-1102.5"/>
<text text-anchor="start" x="879.5" y="-1113.9" font-family="Arial" font-size="14.00" fill="#000000">created_at </text>
<text text-anchor="start" x="949.528" y="-1113.9" font-family="Arial" font-size="14.00" fill="#666666">[timestamp without time zone]</text>
<polygon fill="none" stroke="#000000" points="872.5,-1072.5 872.5,-1102.5 1145.5,-1102.5 1145.5,-1072.5 872.5,-1072.5"/>
<text text-anchor="start" x="879.4636" y="-1083.9" font-family="Arial" font-size="14.00" fill="#000000">updated_at </text>
<text text-anchor="start" x="953.3962" y="-1083.9" font-family="Arial" font-size="14.00" fill="#666666">[timestamp without time zone]</text>
<polygon fill="none" stroke="#000000" points="872.5,-1042.5 872.5,-1072.5 1145.5,-1072.5 1145.5,-1042.5 872.5,-1042.5"/>
<text text-anchor="start" x="879.5" y="-1053.9" font-family="Arial" font-size="14.00" fill="#000000">filter_g </text>
<text text-anchor="start" x="925.3934" y="-1053.9" font-family="Arial" font-size="14.00" fill="#666666">[varchar]</text>
<polygon fill="none" stroke="#000000" points="872.5,-1012.5 872.5,-1042.5 1145.5,-1042.5 1145.5,-1012.5 872.5,-1012.5"/>
<text text-anchor="start" x="879.5" y="-1023.9" font-family="Arial" font-size="14.00" fill="#000000">filter_r </text>
<text text-anchor="start" x="922.2714" y="-1023.9" font-family="Arial" font-size="14.00" fill="#666666">[varchar]</text>
<polygon fill="none" stroke="#000000" points="872.5,-982.5 872.5,-1012.5 1145.5,-1012.5 1145.5,-982.5 872.5,-982.5"/>
<text text-anchor="start" x="879.5" y="-993.9" font-family="Arial" font-size="14.00" fill="#000000">filter_i </text>
<text text-anchor="start" x="920.7174" y="-993.9" font-family="Arial" font-size="14.00" fill="#666666">[varchar]</text>
<polygon fill="none" stroke="#000000" points="872.5,-952.5 872.5,-982.5 1145.5,-982.5 1145.5,-952.5 872.5,-952.5"/>
<text text-anchor="start" x="879.5" y="-963.9" font-family="Arial" font-size="14.00" fill="#000000">filter_z </text>
<text text-anchor="start" x="924.6108" y="-963.9" font-family="Arial" font-size="14.00" fill="#666666">[varchar]</text>
<polygon fill="none" stroke="#000000" points="872.5,-922.5 872.5,-952.5 1145.5,-952.5 1145.5,-922.5 872.5,-922.5"/>
<text text-anchor="start" x="879.5" y="-933.9" font-family="Arial" font-size="14.00" fill="#000000">filter_y </text>
<text text-anchor="start" x="924.6108" y="-933.9" font-family="Arial" font-size="14.00" fill="#666666">[varchar]</text>
<polygon fill="none" stroke="#000000" points="872.5,-892.5 872.5,-922.5 1145.5,-922.5 1145.5,-892.5 872.5,-892.5"/>
<text text-anchor="start" x="879.5" y="-903.9" font-family="Arial" font-size="14.00" fill="#000000">filter_j </text>
<text text-anchor="start" x="920.7174" y="-903.9" font-family="Arial" font-size="14.00" fill="#666666">[varchar]</text>
<polygon fill="none" stroke="#000000" points="872.5,-862.5 872.5,-892.5 1145.5,-892.5 1145.5,-862.5 872.5,-862.5"/>
<text text-anchor="start" x="879.5" y="-873.9" font-family="Arial" font-size="14.00" fill="#000000">psf_mag_error_g </text>
<text text-anchor="start" x="989.967" y="-873.9" font-family="Arial" font-size="14.00" fill="#666666">[double precision]</text>
<polygon fill="none" stroke="#000000" points="872.5,-832.5 872.5,-862.5 1145.5,-862.5 1145.5,-832.5 872.5,-832.5"/>
<text text-anchor="start" x="879.5" y="-843.9" font-family="Arial" font-size="14.00" fill="#000000">psf_mag_error_r </text>
<text text-anchor="start" x="986.845" y="-843.9" font-family="Arial" font-size="14.00" fill="#666666">[double precision]</text>
<polygon fill="none" stroke="#000000" points="872.5,-802.5 872.5,-832.5 1145.5,-832.5 1145.5,-802.5 872.5,-802.5"/>
<text text-anchor="start" x="879.5" y="-813.9" font-family="Arial" font-size="14.00" fill="#000000">psf_mag_error_i </text>
<text text-anchor="start" x="985.291" y="-813.9" font-family="Arial" font-size="14.00" fill="#666666">[double precision]</text>
<polygon fill="none" stroke="#000000" points="872.5,-772.5 872.5,-802.5 1145.5,-802.5 1145.5,-772.5 872.5,-772.5"/>
<text text-anchor="start" x="879.5" y="-783.9" font-family="Arial" font-size="14.00" fill="#000000">psf_mag_error_z </text>
<text text-anchor="start" x="989.1844" y="-783.9" font-family="Arial" font-size="14.00" fill="#666666">[double precision]</text>
<polygon fill="none" stroke="#000000" points="872.5,-742.5 872.5,-772.5 1145.5,-772.5 1145.5,-742.5 872.5,-742.5"/>
<text text-anchor="start" x="879.5" y="-753.9" font-family="Arial" font-size="14.00" fill="#000000">psf_mag_error_y </text>
<text text-anchor="start" x="989.1844" y="-753.9" font-family="Arial" font-size="14.00" fill="#666666">[double precision]</text>
<polygon fill="none" stroke="#000000" points="872.5,-712.5 872.5,-742.5 1145.5,-742.5 1145.5,-712.5 872.5,-712.5"/>
<text text-anchor="start" x="879.5" y="-723.9" font-family="Arial" font-size="14.00" fill="#000000">psf_mag_error_j </text>
<text text-anchor="start" x="985.291" y="-723.9" font-family="Arial" font-size="14.00" fill="#666666">[double precision]</text>
<polygon fill="none" stroke="#000000" points="872.5,-682.5 872.5,-712.5 1145.5,-712.5 1145.5,-682.5 872.5,-682.5"/>
<text text-anchor="start" x="879.5" y="-693.9" font-family="Arial" font-size="14.00" fill="#000000">psf_flux_error_g </text>
<text text-anchor="start" x="984.521" y="-693.9" font-family="Arial" font-size="14.00" fill="#666666">[double precision]</text>
<polygon fill="none" stroke="#000000" points="872.5,-652.5 872.5,-682.5 1145.5,-682.5 1145.5,-652.5 872.5,-652.5"/>
<text text-anchor="start" x="879.5" y="-663.9" font-family="Arial" font-size="14.00" fill="#000000">psf_flux_error_r </text>
<text text-anchor="start" x="981.399" y="-663.9" font-family="Arial" font-size="14.00" fill="#666666">[double precision]</text>
<polygon fill="none" stroke="#000000" points="872.5,-622.5 872.5,-652.5 1145.5,-652.5 1145.5,-622.5 872.5,-622.5"/>
<text text-anchor="start" x="879.5" y="-633.9" font-family="Arial" font-size="14.00" fill="#000000">psf_flux_error_i </text>
<text text-anchor="start" x="979.845" y="-633.9" font-family="Arial" font-size="14.00" fill="#666666">[double precision]</text>
<polygon fill="none" stroke="#000000" points="872.5,-592.5 872.5,-622.5 1145.5,-622.5 1145.5,-592.5 872.5,-592.5"/>
<text text-anchor="start" x="879.5" y="-603.9" font-family="Arial" font-size="14.00" fill="#000000">psf_flux_error_z </text>
<text text-anchor="start" x="983.7384" y="-603.9" font-family="Arial" font-size="14.00" fill="#666666">[double precision]</text>
<polygon fill="none" stroke="#000000" points="872.5,-562.5 872.5,-592.5 1145.5,-592.5 1145.5,-562.5 872.5,-562.5"/>
<text text-anchor="start" x="879.5" y="-573.9" font-family="Arial" font-size="14.00" fill="#000000">psf_flux_error_y </text>
<text text-anchor="start" x="983.7384" y="-573.9" font-family="Arial" font-size="14.00" fill="#666666">[double precision]</text>
<polygon fill="none" stroke="#000000" points="872.5,-532.5 872.5,-562.5 1145.5,-562.5 1145.5,-532.5 872.5,-532.5"/>
<text text-anchor="start" x="879.5" y="-543.9" font-family="Arial" font-size="14.00" fill="#000000">psf_flux_error_j </text>
<text text-anchor="start" x="979.845" y="-543.9" font-family="Arial" font-size="14.00" fill="#666666">[double precision]</text>
<polygon fill="none" stroke="#000000" points="872.5,-502.5 872.5,-532.5 1145.5,-532.5 1145.5,-502.5 872.5,-502.5"/>
<text text-anchor="start" x="879.5" y="-513.9" font-family="Arial" font-size="14.00" fill="#000000">teff_brutus </text>
<text text-anchor="start" x="949.5266" y="-513.9" font-family="Arial" font-size="14.00" fill="#666666">[double precision]</text>
<polygon fill="none" stroke="#000000" points="872.5,-472.5 872.5,-502.5 1145.5,-502.5 1145.5,-472.5 872.5,-472.5"/>
<text text-anchor="start" x="879.5" y="-483.9" font-family="Arial" font-size="14.00" fill="#000000">teff_brutus_low </text>
<text text-anchor="start" x="978.305" y="-483.9" font-family="Arial" font-size="14.00" fill="#666666">[double precision]</text>
<polygon fill="none" stroke="#000000" points="872.5,-442.5 872.5,-472.5 1145.5,-472.5 1145.5,-442.5 872.5,-442.5"/>
<text text-anchor="start" x="879.5" y="-453.9" font-family="Arial" font-size="14.00" fill="#000000">teff_brutus_high </text>
<text text-anchor="start" x="983.7636" y="-453.9" font-family="Arial" font-size="14.00" fill="#666666">[double precision]</text>
<polygon fill="none" stroke="#000000" points="872.5,-412.5 872.5,-442.5 1145.5,-442.5 1145.5,-412.5 872.5,-412.5"/>
<text text-anchor="start" x="879.5" y="-423.9" font-family="Arial" font-size="14.00" fill="#000000">logg_brutus </text>
<text text-anchor="start" x="956.5266" y="-423.9" font-family="Arial" font-size="14.00" fill="#666666">[double precision]</text>
<polygon fill="none" stroke="#000000" points="872.5,-382.5 872.5,-412.5 1145.5,-412.5 1145.5,-382.5 872.5,-382.5"/>
<text text-anchor="start" x="879.5" y="-393.9" font-family="Arial" font-size="14.00" fill="#000000">logg_brutus_low </text>
<text text-anchor="start" x="985.305" y="-393.9" font-family="Arial" font-size="14.00" fill="#666666">[double precision]</text>
<polygon fill="none" stroke="#000000" points="872.5,-352.5 872.5,-382.5 1145.5,-382.5 1145.5,-352.5 872.5,-352.5"/>
<text text-anchor="start" x="879.5" y="-363.9" font-family="Arial" font-size="14.00" fill="#000000">logg_brutus_high </text>
<text text-anchor="start" x="990.7636" y="-363.9" font-family="Arial" font-size="14.00" fill="#666666">[double precision]</text>
<polygon fill="none" stroke="#000000" stroke-width="3" points="870.5,-351.5 870.5,-2099.5 1146.5,-2099.5 1146.5,-351.5 870.5,-351.5"/>
</g>
<!-- public.target_type -->
<g id="node2" class="node">
<title>public.target_type</title>
<polygon fill="#efefef" stroke="transparent" points="43.5,-192.5 43.5,-227.5 346.5,-227.5 346.5,-192.5 43.5,-192.5"/>
<polygon fill="none" stroke="#000000" points="43.5,-192.5 43.5,-227.5 346.5,-227.5 346.5,-192.5 43.5,-192.5"/>
<text text-anchor="start" x="60.1934" y="-205.3" font-family="Arial Bold" font-size="18.00" fill="#000000">public.target_type</text>
<text text-anchor="start" x="202.2386" y="-205.3" font-family="Arial" font-size="14.00" fill="#000000">    </text>
<text text-anchor="start" x="236.4434" y="-205.3" font-family="Arial" font-size="14.00" fill="#666666">[BASE TABLE]</text>
<polygon fill="none" stroke="#000000" points="43.5,-162.5 43.5,-192.5 346.5,-192.5 346.5,-162.5 43.5,-162.5"/>
<text text-anchor="start" x="50.5" y="-173.9" font-family="Arial" font-size="14.00" fill="#000000">target_type_id    </text>
<text text-anchor="start" x="173.4046" y="-173.9" font-family="Arial" font-size="14.00" fill="#666666">[integer]</text>
<polygon fill="none" stroke="#000000" points="43.5,-132.5 43.5,-162.5 346.5,-162.5 346.5,-132.5 43.5,-132.5"/>
<text text-anchor="start" x="50.5" y="-143.9" font-family="Arial" font-size="14.00" fill="#000000">target_type_name    </text>
<text text-anchor="start" x="197.5238" y="-143.9" font-family="Arial" font-size="14.00" fill="#666666">[varchar]</text>
<polygon fill="none" stroke="#000000" points="43.5,-102.5 43.5,-132.5 346.5,-132.5 346.5,-102.5 43.5,-102.5"/>
<text text-anchor="start" x="50.5" y="-113.9" font-family="Arial" font-size="14.00" fill="#000000">target_type_description    </text>
<text text-anchor="start" x="230.1928" y="-113.9" font-family="Arial" font-size="14.00" fill="#666666">[varchar]</text>
<polygon fill="none" stroke="#000000" points="43.5,-72.5 43.5,-102.5 346.5,-102.5 346.5,-72.5 43.5,-72.5"/>
<text text-anchor="start" x="50.5" y="-83.9" font-family="Arial" font-size="14.00" fill="#000000">created_at    </text>
<text text-anchor="start" x="150.8422" y="-83.9" font-family="Arial" font-size="14.00" fill="#666666">[timestamp without time zone]</text>
<polygon fill="none" stroke="#000000" points="43.5,-42.5 43.5,-72.5 346.5,-72.5 346.5,-42.5 43.5,-42.5"/>
<text text-anchor="start" x="50.3065" y="-53.9" font-family="Arial" font-size="14.00" fill="#000000">updated_at    </text>
<text text-anchor="start" x="154.5533" y="-53.9" font-family="Arial" font-size="14.00" fill="#666666">[timestamp without time zone]</text>
</g>
<!-- public.fluxstd&#45;&gt;public.target_type -->
<g id="edge1" class="edge">
<title>public.fluxstd:target_type_id&#45;&gt;public.target_type:target_type_id</title>
<path fill="none" stroke="#000000" d="M865.1919,-1650.2349C793.544,-1538.5835 388.3408,-177.5 346.5,-177.5"/>
<polygon fill="#000000" stroke="#000000" points="865.4081,-1650.4498 869.3274,-1660.6914 868.954,-1653.9749 872.5,-1657.5 872.5,-1657.5 872.5,-1657.5 868.954,-1653.9749 875.6726,-1654.3086 865.4081,-1650.4498 865.4081,-1650.4498"/>
<text text-anchor="start" x="530.972" y="-1667.5" font-family="Arial" font-size="10.00" fill="#000000">FOREIGN KEY (target_type_id) REFERENCES target_type(target_type_id)</text>
</g>
<!-- public.input_catalog -->
<g id="node3" class="node">
<title>public.input_catalog</title>
<polygon fill="#efefef" stroke="transparent" points="450.5,-192.5 450.5,-227.5 753.5,-227.5 753.5,-192.5 450.5,-192.5"/>
<polygon fill="none" stroke="#000000" points="450.5,-192.5 450.5,-227.5 753.5,-227.5 753.5,-192.5 450.5,-192.5"/>
<text text-anchor="start" x="458.6902" y="-205.3" font-family="Arial Bold" font-size="18.00" fill="#000000">public.input_catalog</text>
<text text-anchor="start" x="617.7418" y="-205.3" font-family="Arial" font-size="14.00" fill="#000000">    </text>
<text text-anchor="start" x="651.9466" y="-205.3" font-family="Arial" font-size="14.00" fill="#666666">[BASE TABLE]</text>
<polygon fill="none" stroke="#000000" points="450.5,-162.5 450.5,-192.5 753.5,-192.5 753.5,-162.5 450.5,-162.5"/>
<text text-anchor="start" x="457.5" y="-173.9" font-family="Arial" font-size="14.00" fill="#000000">input_catalog_id    </text>
<text text-anchor="start" x="593.6318" y="-173.9" font-family="Arial" font-size="14.00" fill="#666666">[integer]</text>
<polygon fill="none" stroke="#000000" points="450.5,-132.5 450.5,-162.5 753.5,-162.5 753.5,-132.5 450.5,-132.5"/>
<text text-anchor="start" x="457.5" y="-143.9" font-family="Arial" font-size="14.00" fill="#000000">input_catalog_name    </text>
<text text-anchor="start" x="617.751" y="-143.9" font-family="Arial" font-size="14.00" fill="#666666">[varchar]</text>
<polygon fill="none" stroke="#000000" points="450.5,-102.5 450.5,-132.5 753.5,-132.5 753.5,-102.5 450.5,-102.5"/>
<text text-anchor="start" x="457.5" y="-113.9" font-family="Arial" font-size="14.00" fill="#000000">input_catalog_description    </text>
<text text-anchor="start" x="650.42" y="-113.9" font-family="Arial" font-size="14.00" fill="#666666">[varchar]</text>
<polygon fill="none" stroke="#000000" points="450.5,-72.5 450.5,-102.5 753.5,-102.5 753.5,-72.5 450.5,-72.5"/>
<text text-anchor="start" x="457.5" y="-83.9" font-family="Arial" font-size="14.00" fill="#000000">created_at    </text>
<text text-anchor="start" x="557.8422" y="-83.9" font-family="Arial" font-size="14.00" fill="#666666">[timestamp without time zone]</text>
<polygon fill="none" stroke="#000000" points="450.5,-42.5 450.5,-72.5 753.5,-72.5 753.5,-42.5 450.5,-42.5"/>
<text text-anchor="start" x="457.3065" y="-53.9" font-family="Arial" font-size="14.00" fill="#000000">updated_at    </text>
<text text-anchor="start" x="561.5533" y="-53.9" font-family="Arial" font-size="14.00" fill="#666666">[timestamp without time zone]</text>
</g>
<!-- public.fluxstd&#45;&gt;public.input_catalog -->
<g id="edge2" class="edge">
<title>public.fluxstd:input_catalog_id&#45;&gt;public.input_catalog:input_catalog_id</title>
<path fill="none" stroke="#000000" d="M863.9993,-1621.6578C794.6692,-1521.8796 831.327,-177.5 753.5,-177.5"/>
<polygon fill="#000000" stroke="#000000" points="864.2586,-1621.836 869.9512,-1631.2086 868.3793,-1624.668 872.5,-1627.5 872.5,-1627.5 872.5,-1627.5 868.3793,-1624.668 875.0488,-1623.7914 864.2586,-1621.836 864.2586,-1621.836"/>
<text text-anchor="start" x="502.8" y="-1637.5" font-family="Arial" font-size="10.00" fill="#000000">FOREIGN KEY (input_catalog_id) REFERENCES input_catalog(input_catalog_id)</text>
</g>
<!-- public.filter_name -->
<g id="node4" class="node">
<title>public.filter_name</title>
<polygon fill="#efefef" stroke="transparent" points="857.5,-177.5 857.5,-212.5 1160.5,-212.5 1160.5,-177.5 857.5,-177.5"/>
<polygon fill="none" stroke="#000000" points="857.5,-177.5 857.5,-212.5 1160.5,-212.5 1160.5,-177.5 857.5,-177.5"/>
<text text-anchor="start" x="874.7073" y="-190.3" font-family="Arial Bold" font-size="18.00" fill="#000000">public.filter_name</text>
<text text-anchor="start" x="1015.7247" y="-190.3" font-family="Arial" font-size="14.00" fill="#000000">    </text>
<text text-anchor="start" x="1049.9295" y="-190.3" font-family="Arial" font-size="14.00" fill="#666666">[BASE TABLE]</text>
<polygon fill="none" stroke="#000000" points="857.5,-147.5 857.5,-177.5 1160.5,-177.5 1160.5,-147.5 857.5,-147.5"/>
<text text-anchor="start" x="864.5" y="-158.9" font-family="Arial" font-size="14.00" fill="#000000">filter_name    </text>
<text text-anchor="start" x="967.9334" y="-158.9" font-family="Arial" font-size="14.00" fill="#666666">[varchar]</text>
<polygon fill="none" stroke="#000000" points="857.5,-117.5 857.5,-147.5 1160.5,-147.5 1160.5,-117.5 857.5,-117.5"/>
<text text-anchor="start" x="864.5" y="-128.9" font-family="Arial" font-size="14.00" fill="#000000">filter_name_description    </text>
<text text-anchor="start" x="1043.3934" y="-128.9" font-family="Arial" font-size="14.00" fill="#666666">[varchar]</text>
<polygon fill="none" stroke="#000000" points="857.5,-87.5 857.5,-117.5 1160.5,-117.5 1160.5,-87.5 857.5,-87.5"/>
<text text-anchor="start" x="864.5" y="-98.9" font-family="Arial" font-size="14.00" fill="#000000">created_at    </text>
<text text-anchor="start" x="964.8422" y="-98.9" font-family="Arial" font-size="14.00" fill="#666666">[timestamp without time zone]</text>
<polygon fill="none" stroke="#000000" points="857.5,-57.5 857.5,-87.5 1160.5,-87.5 1160.5,-57.5 857.5,-57.5"/>
<text text-anchor="start" x="864.3065" y="-68.9" font-family="Arial" font-size="14.00" fill="#000000">updated_at    </text>
<text text-anchor="start" x="968.5533" y="-68.9" font-family="Arial" font-size="14.00" fill="#666666">[timestamp without time zone]</text>
</g>
<!-- public.fluxstd&#45;&gt;public.filter_name -->
<g id="edge3" class="edge">
<title>public.fluxstd:filter_g&#45;&gt;public.filter_name:filter_name</title>
<path fill="none" stroke="#000000" d="M862.8734,-1054.6055C772.1717,-999.0531 761.3439,-162.5 857.5,-162.5"/>
<polygon fill="#000000" stroke="#000000" points="862.9235,-1054.6204 871.2042,-1061.8094 867.7118,-1056.0602 872.5,-1057.5 872.5,-1057.5 872.5,-1057.5 867.7118,-1056.0602 873.7958,-1053.1906 862.9235,-1054.6204 862.9235,-1054.6204"/>
<text text-anchor="start" x="578.889" y="-1067.5" font-family="Arial" font-size="10.00" fill="#000000">FOREIGN KEY (filter_g) REFERENCES filter_name(filter_name)</text>
</g>
<!-- public.fluxstd&#45;&gt;public.filter_name -->
<g id="edge4" class="edge">
<title>public.fluxstd:filter_r&#45;&gt;public.filter_name:filter_name</title>
<path fill="none" stroke="#000000" d="M862.9289,-1024.5375C775.4789,-969.3797 764.66,-162.5 857.5,-162.5"/>
<polygon fill="#000000" stroke="#000000" points="862.9472,-1024.543 871.1694,-1031.7988 867.7236,-1026.0215 872.5,-1027.5 872.5,-1027.5 872.5,-1027.5 867.7236,-1026.0215 873.8306,-1023.2012 862.9472,-1024.543 862.9472,-1024.543"/>
<text text-anchor="start" x="581.004" y="-1037.5" font-family="Arial" font-size="10.00" fill="#000000">FOREIGN KEY (filter_r) REFERENCES filter_name(filter_name)</text>
</g>
<!-- public.fluxstd&#45;&gt;public.filter_name -->
<g id="edge5" class="edge">
<title>public.fluxstd:filter_i&#45;&gt;public.filter_name:filter_name</title>
<path fill="none" stroke="#000000" d="M862.7475,-994.3083C778.764,-938.2484 768.0601,-162.5 857.5,-162.5"/>
<polygon fill="#000000" stroke="#000000" points="862.996,-994.3896 871.1003,-1001.7768 867.748,-995.9448 872.5,-997.5 872.5,-997.5 872.5,-997.5 867.748,-995.9448 873.8997,-993.2232 862.996,-994.3896 862.996,-994.3896"/>
<text text-anchor="start" x="582.559" y="-1007.5" font-family="Arial" font-size="10.00" fill="#000000">FOREIGN KEY (filter_i) REFERENCES filter_name(filter_name)</text>
</g>
<!-- public.fluxstd&#45;&gt;public.filter_name -->
<g id="edge6" class="edge">
<title>public.fluxstd:filter_z&#45;&gt;public.filter_name:filter_name</title>
<path fill="none" stroke="#000000" d="M862.8497,-964.2566C782.0706,-908.8625 771.3598,-162.5 857.5,-162.5"/>
<polygon fill="#000000" stroke="#000000" points="863.0211,-964.3141 871.0663,-971.7655 867.7605,-965.907 872.5,-967.5 872.5,-967.5 872.5,-967.5 867.7605,-965.907 873.9337,-963.2345 863.0211,-964.3141 863.0211,-964.3141"/>
<text text-anchor="start" x="579.1685" y="-977.5" font-family="Arial" font-size="10.00" fill="#000000">FOREIGN KEY (filter_z) REFERENCES filter_name(filter_name)</text>
</g>
<!-- public.fluxstd&#45;&gt;public.filter_name -->
<g id="edge7" class="edge">
<title>public.fluxstd:filter_y&#45;&gt;public.filter_name:filter_name</title>
<path fill="none" stroke="#000000" d="M862.7343,-934.0447C785.3552,-878.1357 774.7371,-162.5 857.5,-162.5"/>
<polygon fill="#000000" stroke="#000000" points="863.0727,-934.1644 870.999,-941.7423 867.7863,-935.8322 872.5,-937.5 872.5,-937.5 872.5,-937.5 867.7863,-935.8322 874.001,-933.2577 863.0727,-934.1644 863.0727,-934.1644"/>
<text text-anchor="start" x="579.1685" y="-947.5" font-family="Arial" font-size="10.00" fill="#000000">FOREIGN KEY (filter_y) REFERENCES filter_name(filter_name)</text>
</g>
<!-- public.fluxstd&#45;&gt;public.filter_name -->
<g id="edge8" class="edge">
<title>public.fluxstd:filter_j&#45;&gt;public.filter_name:filter_name</title>
<path fill="none" stroke="#000000" d="M862.6566,-903.8429C788.6395,-847.64 778.1013,-162.5 857.5,-162.5"/>
<polygon fill="#000000" stroke="#000000" points="863.126,-904.0173 870.9328,-911.7183 867.813,-905.7586 872.5,-907.5 872.5,-907.5 872.5,-907.5 867.813,-905.7586 874.0672,-903.2817 863.126,-904.0173 863.126,-904.0173"/>
<text text-anchor="start" x="582.559" y="-917.5" font-family="Arial" font-size="10.00" fill="#000000">FOREIGN KEY (filter_j) REFERENCES filter_name(filter_name)</text>
</g>
</g>
</svg>
